<svg width="241" height="64" viewBox="0 0 241 64" fill="none" xmlns="http://www.w3.org/2000/svg">
<path d="M15.0807 39.0557C14.989 38.964 14.9671 38.8286 15.0588 38.715L16.0592 37.5334C16.1509 37.4198 16.2645 37.4198 16.378 37.5115C17.3784 38.3066 18.9225 39.1016 20.6938 39.1016C22.8299 39.1016 24.101 38.0336 24.101 36.4675C24.101 35.1505 23.3519 34.2638 20.8751 33.9471L20.1019 33.8335C17.1032 33.4251 15.559 31.9945 15.559 29.5636C15.559 26.816 17.5356 25.0425 20.6021 25.0425C22.4193 25.0425 24.1688 25.6344 25.3045 26.4731C25.4181 26.5648 25.4399 26.6784 25.3504 26.792L24.5772 28.0413C24.4855 28.1548 24.3719 28.1548 24.2583 28.0871C23.009 27.314 21.8514 26.9295 20.5322 26.9295C18.6473 26.9295 17.6011 27.9517 17.6011 29.4282C17.6011 30.7233 18.4639 31.5861 20.8489 31.9049L21.5981 32.0185C24.6187 32.4269 26.141 33.8139 26.141 36.3343C26.141 39.0382 24.2321 40.9908 20.5082 40.9908C18.3285 40.9908 16.2142 40.1041 15.0785 39.0601L15.0807 39.0557Z" fill="#101019"/>
<path d="M28.9128 44.8262C28.7774 44.8262 28.6857 44.7344 28.6857 44.599V30.0834C28.6857 29.948 28.7774 29.8563 28.9128 29.8563H30.3674C30.5028 29.8563 30.5946 29.948 30.5946 30.0834V31.1056H30.6164C31.1384 30.2429 32.071 29.6073 33.7047 29.6073C35.5896 29.6073 36.9067 30.494 37.4527 32.2195C37.7475 33.0822 37.8393 33.9449 37.8393 35.286C37.8393 36.627 37.7475 37.5116 37.4527 38.3743C36.9067 40.0998 35.5896 40.9865 33.7047 40.9865C32.0689 40.9865 31.1384 40.3269 30.6164 39.4642H30.5946V44.5968C30.5946 44.7322 30.5028 44.824 30.3674 44.824H28.9128V44.8262ZM35.6377 37.5575C35.819 36.9896 35.8867 36.2863 35.8867 35.286C35.8867 34.2857 35.819 33.6042 35.6377 33.0145C35.2751 31.9465 34.4561 31.3786 33.2526 31.3786C32.0492 31.3786 31.2083 31.9246 30.8458 33.0145C30.6645 33.5605 30.5968 34.1961 30.5968 35.286C30.5968 36.3758 30.6645 37.0354 30.8458 37.5575C31.2083 38.6473 32.0492 39.2152 33.2526 39.2152C34.4561 39.2152 35.2751 38.6255 35.6377 37.5575Z" fill="#101019"/>
<path d="M40.5671 27.4035C40.4317 27.4035 40.34 27.3118 40.34 27.1764V25.5187C40.34 25.3832 40.4317 25.2915 40.5671 25.2915H42.1113C42.2467 25.2915 42.3384 25.3832 42.3384 25.5187V27.1764C42.3384 27.3118 42.2467 27.4035 42.1113 27.4035H40.5671ZM40.6108 40.7375C40.4754 40.7375 40.3836 40.6458 40.3836 40.5104V30.0834C40.3836 29.948 40.4754 29.8563 40.6108 29.8563H42.0654C42.2008 29.8563 42.2926 29.948 42.2926 30.0834V40.5104C42.2926 40.6458 42.2008 40.7375 42.0654 40.7375H40.6108Z" fill="#101019"/>
<path d="M52.5601 40.7375C52.4247 40.7375 52.3329 40.6458 52.3329 40.5104V34.1502C52.3329 32.4008 51.5379 31.3786 49.902 31.3786C48.4256 31.3786 47.4034 32.4226 47.4034 34.0367V40.5104C47.4034 40.6458 47.3117 40.7375 47.1763 40.7375H45.7217C45.5862 40.7375 45.4945 40.6458 45.4945 40.5104V30.0834C45.4945 29.948 45.5862 29.8563 45.7217 29.8563H47.1763C47.3117 29.8563 47.4034 29.948 47.4034 30.0834V31.0838H47.4253C47.9473 30.2429 48.9934 29.6073 50.4699 29.6073C52.8331 29.6073 54.2397 31.2192 54.2397 33.6959V40.5104C54.2397 40.6458 54.1479 40.7375 54.0125 40.7375H52.5579H52.5601Z" fill="#101019"/>
<path d="M56.533 35.3537V34.0367C56.533 33.9012 56.6247 33.8095 56.7601 33.8095H62.8035C62.9389 33.8095 63.0307 33.9012 63.0307 34.0367V35.3537C63.0307 35.4891 62.9389 35.5808 62.8035 35.5808H56.7601C56.6247 35.5808 56.533 35.4891 56.533 35.3537Z" fill="#101019"/>
<path d="M65.1427 38.0576C64.8937 37.3085 64.7802 36.5593 64.7802 35.286C64.7802 34.0126 64.8937 33.2875 65.1427 32.5384C65.7324 30.6753 67.3225 29.6073 69.4367 29.6073C71.5509 29.6073 73.1387 30.6753 73.7306 32.5384C73.9796 33.2875 74.0932 34.0367 74.0932 35.286C74.0932 36.5353 73.9796 37.3085 73.7306 38.0576C73.1409 39.8966 71.5509 40.9887 69.4367 40.9887C67.3225 40.9887 65.7346 39.8988 65.1427 38.0576ZM71.8894 37.5116C72.0707 36.9219 72.1384 36.33 72.1384 35.286C72.1384 34.242 72.0707 33.6741 71.8894 33.0822C71.5269 31.9923 70.6401 31.3786 69.4367 31.3786C68.2332 31.3786 67.3465 31.9923 66.9839 33.0822C66.8026 33.6719 66.7349 34.2398 66.7349 35.286C66.7349 36.3322 66.8026 36.9219 66.9839 37.5116C67.3465 38.6015 68.2332 39.2152 69.4367 39.2152C70.6401 39.2152 71.5269 38.6015 71.8894 37.5116Z" fill="#101019"/>
<path d="M77.2273 40.7375C77.0919 40.7375 77.0001 40.6458 77.0001 40.5104V31.5381C77.0001 31.4463 76.9543 31.4026 76.8647 31.4026H75.9343C75.7989 31.4026 75.7072 31.3109 75.7072 31.1755V30.0856C75.7072 29.9502 75.7989 29.8585 75.9343 29.8585H76.8647C76.9565 29.8585 77.0001 29.8126 77.0001 29.7231V28.7926C77.0001 26.2263 78.0441 25.2937 80.3156 25.2937H81.1565C81.2919 25.2937 81.3836 25.3854 81.3836 25.5208V26.8379C81.3836 26.9733 81.2919 27.065 81.1565 27.065H80.5668C79.1821 27.065 78.909 27.3599 78.909 28.7009V29.7231C78.909 29.8148 78.9549 29.8585 79.0445 29.8585H81.1565C81.2919 29.8585 81.3836 29.9502 81.3836 30.0856V31.1755C81.3836 31.3109 81.2919 31.4026 81.1565 31.4026H79.0445C78.9527 31.4026 78.909 31.4485 78.909 31.5381V40.5104C78.909 40.6458 78.8173 40.7375 78.6819 40.7375H77.2273ZM84.4501 40.7375C84.3147 40.7375 84.223 40.6458 84.223 40.5104V31.5381C84.223 31.4463 84.1771 31.4026 84.0876 31.4026H83.1571C83.0217 31.4026 82.93 31.3109 82.93 31.1755V30.0856C82.93 29.9502 83.0217 29.8585 83.1571 29.8585H84.0876C84.1793 29.8585 84.223 29.8126 84.223 29.7231V28.7926C84.223 26.2263 85.267 25.2937 87.5385 25.2937H88.3793C88.5148 25.2937 88.6065 25.3854 88.6065 25.5208V26.8379C88.6065 26.9733 88.5148 27.065 88.3793 27.065H87.7896C86.4049 27.065 86.1319 27.3599 86.1319 28.7009V29.7231C86.1319 29.8148 86.1778 29.8585 86.2673 29.8585H88.3793C88.5148 29.8585 88.6065 29.9502 88.6065 30.0856V31.1755C88.6065 31.3109 88.5148 31.4026 88.3793 31.4026H86.2673C86.1756 31.4026 86.1319 31.4485 86.1319 31.5381V40.5104C86.1319 40.6458 86.0402 40.7375 85.9048 40.7375H84.4501Z" fill="#101019"/>
<path d="M160.579 29.8782H156.858L158.164 23.4351H126.676L123.349 40.0801H135.901L136.755 35.784H129.338L129.762 33.637H137.183L137.937 29.8782H130.53L130.954 27.7312H142.742L140.274 40.0801H145.393L147.859 27.7312H152.155L149.689 40.0801H154.846L156.122 33.637H159.841L158.566 40.0801H163.698L167.027 23.4351H161.879L160.573 29.8782H160.579ZM182.541 25.582H184.253L184.677 23.4351H182.973L182.541 25.582ZM186.933 25.582H188.645L189.069 23.4351H187.365L186.933 25.582ZM202.947 25.582H204.659L205.085 23.4351H203.379L202.947 25.582ZM211.519 28.7534C208.531 28.7534 206.435 30.8698 205.764 34.5587C205.659 35.1353 205.605 35.7228 205.603 36.3082C205.603 38.8286 207.123 40.3947 209.575 40.3947C210.993 40.399 212.354 39.8246 213.339 38.8046L213.354 38.7893L212.404 37.6252L212.386 37.6055L212.369 37.6252C211.712 38.4464 210.718 38.9269 209.665 38.9269C208.497 38.9269 207.247 38.2258 207.247 36.2623C207.252 35.6923 207.313 35.1244 207.429 34.5675C207.603 33.3706 208.108 32.2479 208.885 31.3197C209.519 30.623 210.416 30.2233 211.36 30.2233C212.273 30.1818 213.127 30.6688 213.555 31.4748L213.568 31.4966L214.778 30.4701L214.796 30.4548L214.782 30.4373C214.075 29.3321 212.83 28.69 211.519 28.7512V28.7534ZM222.446 28.5131C221.232 28.452 220.048 28.9215 219.205 29.7974L220.489 23.4351H218.834L215.508 40.0801H217.163L218.543 33.0888C219.135 30.1425 221.422 29.9939 221.872 29.9939C222.883 29.8913 223.787 30.6273 223.89 31.6386C223.901 31.7521 223.903 31.8657 223.892 31.9771C223.884 32.3309 223.844 32.6848 223.777 33.0342L222.372 40.0801H224.026L225.478 32.8813C225.552 32.5078 225.592 32.1278 225.594 31.7456C225.71 30.0813 224.456 28.6354 222.789 28.5197C222.674 28.5109 222.558 28.5109 222.444 28.5153L222.446 28.5131ZM200.123 40.0517L200.118 40.0801H201.752L203.98 28.8058H202.374L200.125 40.0539L200.123 40.0517ZM170.179 30.3849L170.174 30.4155H175.715L168.407 38.7194V38.7238L168.13 40.0801H175.999L176.309 38.4705H170.425L177.753 30.1665V30.1621L178.033 28.8058H170.482L170.176 30.3849H170.179ZM197.406 28.666C196.211 28.6354 195.069 29.164 194.322 30.0944L194.575 28.8276L194.579 28.8014H192.97L190.744 40.0496L190.74 40.078H192.376L193.736 33.1784C194.086 31.4092 195.438 30.125 196.956 30.125C197.576 30.1097 198.164 30.4045 198.524 30.9113L198.539 30.9309L199.865 29.7362L199.852 29.7209C199.245 29.0111 198.343 28.6223 197.41 28.6638L197.406 28.666ZM187.542 28.8036H189.198L189.193 28.8298L186.968 40.078H185.356L185.36 40.0496L185.574 38.8789C184.74 39.7809 183.552 40.268 182.324 40.2134C180.682 40.2876 179.291 39.0143 179.216 37.3718C179.212 37.2561 179.212 37.1403 179.221 37.0246C179.225 36.6817 179.264 36.3409 179.337 36.0046L179.356 35.9019L180.765 28.8014H182.399L182.394 28.8276L181.01 35.7534C180.944 36.0963 180.907 36.4458 180.898 36.7952C180.82 37.7999 181.571 38.6801 182.578 38.7588C182.689 38.7675 182.803 38.7653 182.914 38.7544C183.357 38.7544 185.592 38.6059 186.177 35.6966L187.542 28.8014V28.8036Z" fill="#101019"/>
<path d="M106.348 15H105.256V49H106.348V15Z" fill="#101019"/>
</svg>
