<svg width="800" height="800" viewBox="0 0 800 800" fill="none" xmlns="http://www.w3.org/2000/svg">
<g clip-path="url(#clip0_942_48587)">
<path opacity="0.05" fill-rule="evenodd" clip-rule="evenodd" d="M633.771 127.328C634.665 128.37 634.848 128.83 636.331 129.511C637.57 130.092 638.525 130.252 639.662 129.591C638.972 126.147 635.112 126.187 633.771 127.308V127.328ZM306.576 651.475C308.363 652.957 317.911 653.698 317.911 651.495C317.911 649.673 310.659 650.394 309.643 650.534C308.485 650.694 307.653 650.574 306.576 651.475ZM639.662 130.112C639.744 131.093 642.689 132.575 645.309 134.557C646.508 135.479 649.697 138.763 650.957 139.203C651.505 138.042 651.647 138.863 649.454 135.919C647.524 133.336 643.685 127.829 639.683 130.112H639.662ZM306.84 655.78C304.849 653.818 298.39 651.535 296.074 650.814C288.476 648.451 279.701 651.315 290.426 652.396C293.494 652.696 298.207 653.938 301.193 654.939C302.351 655.32 302.879 655.46 304.017 655.76C305.459 656.141 305.54 656.521 306.84 655.78ZM643.766 120.5C644.416 122.822 650.733 126.908 652.216 127.709L657.599 130.432C658.717 130.833 658.615 130.953 659.651 130.092C654.959 125.466 651.891 122.903 645.817 120.56C644.842 120.179 644.558 120.139 643.766 120.5ZM644.477 459.871C645.777 458.79 645.188 459.451 646.325 458.129C649.271 454.705 654.288 444.952 650.632 441.187C649.433 442.429 648.661 446.214 648.052 448.016C646.935 451.3 644.416 456.367 644.131 457.368C643.827 458.429 643.827 458.89 644.456 459.891L644.477 459.871ZM460.738 49.2689C458.849 47.4866 455.741 47.8071 453.303 47.5067C450.825 47.1863 448.245 47.1262 445.868 47.6669C439.043 49.1688 440.038 51.4917 445.604 50.7708L452.003 50.5305C452.003 50.5305 452.186 50.5305 452.267 50.5505L455.599 50.7308C457.63 50.9711 458.706 51.2715 460.717 49.2889L460.738 49.2689ZM499.7 133.676C501.487 135.158 502.991 134.938 504.819 135.278C509.694 136.199 510.568 136.64 515.077 137.962C518.145 138.863 518.775 139.924 520.461 138.963C519.201 135.418 508.699 131.714 502.524 132.295C501.345 132.395 500.858 132.515 499.7 133.656V133.676ZM652.216 121.26C653.902 122.923 654.756 123.363 656.584 124.445C657.112 124.745 658.107 125.366 658.635 125.666C659.814 126.327 659.956 126.227 660.951 126.828L661.459 126.327C659.773 123.603 660.728 125.326 658.9 123.804C660.728 123.924 661.967 125.005 663.775 126.087C667.431 128.269 667.492 128.77 668.894 127.609C663.064 121.861 662.82 121.04 655.304 119.759C654.776 119.678 650.104 119.198 652.237 121.281L652.216 121.26ZM460.738 51.7921C461.693 52.7333 462.282 52.9936 463.297 53.1739C464.151 53.3341 464.943 53.3942 465.857 53.5143L470.976 53.9348C473.556 53.9348 479.061 54.5957 481.235 52.7934C478.249 49.9898 462.607 49.7095 461.225 50.5305C460.677 50.8509 460.23 51.2915 460.738 51.7921ZM687.339 109.365C688.131 111.568 690.711 115.493 693.738 116.775C695.119 117.356 695.058 116.875 696.562 117.275C699.913 118.157 699.04 119.298 701.173 121.501C702.777 118.777 699.893 115.693 698.187 113.991L698.105 113.911C697.11 112.93 691.91 110.166 690.163 109.445C688.863 108.905 688.497 108.705 687.339 109.365ZM628.652 85.8755C626.865 80.8691 613.315 71.2368 604.499 73.0592C602.772 73.4196 602.996 74.0604 604.499 74.7013C607.891 76.1431 611.162 73.72 625.585 84.6739C628.246 86.6965 627.84 86.256 628.652 85.8755ZM152.313 346.747C150.139 348.89 151.033 363.689 153.084 365.691C154.71 367.293 155.136 362.868 155.238 361.907C155.766 356.96 156.091 356.78 154.994 351.293C154.649 349.571 154.588 347.528 153.084 345.986L152.313 346.747ZM635.051 90.6816C635.843 91.9232 637.022 96.2487 640.17 96.8694C640.312 96.8895 640.963 96.9496 641.186 96.9496L646.061 97.4902C649.982 98.6918 651.952 100.955 654.004 99.7731C651.201 97.0096 642.202 90.8618 637.59 89.9206C636.25 89.6403 636.229 89.5401 635.031 90.6816H635.051ZM627.535 496.778C631.191 493.173 638.565 476.532 640.536 471.005C641.247 469.003 643.867 464.197 642.669 462.154C640.698 464.097 630.846 487.466 628.774 492.232C627.271 495.697 626.763 495.456 627.535 496.778ZM295.911 74.8214C295.22 75.5023 295.322 75.6425 294.895 76.3433C296.785 77.9254 301.579 75.6024 303.61 74.8414C304.606 74.4609 305.682 74.1806 306.678 73.8201L312.569 71.7175C315.148 70.8163 316.916 70.2957 318.724 68.5134C317.221 67.2718 315.92 67.7324 314.62 67.8525C309.908 68.2931 302.229 68.8738 298.491 72.3983C297.475 73.3596 298.186 72.899 297.354 73.68C297.029 74.0004 296.521 74.2206 295.891 74.8414L295.911 74.8214ZM164.379 304.053C163.404 305.014 161.819 307.998 161.494 309.099C160.56 312.484 160.58 321.936 163.079 324.519C164.765 322.777 164.745 317.991 165.943 313.405C166.512 311.182 167.02 310.061 167.873 307.838C168.34 306.656 168.523 306.236 168.848 305.054C169.234 303.612 169.335 303.392 168.462 302.03C167.182 302.271 165.618 302.811 164.359 304.053H164.379ZM387.425 47.2664C389.355 49.1688 395.49 50.13 398.192 50.13C399.187 50.13 400.771 49.8296 401.787 49.7295C403.473 49.5493 415.682 48.588 415.682 46.7858C415.682 45.404 406.703 45.1236 405.362 45.1236C403.981 45.1236 402.965 44.8433 401.767 44.9434C398.781 45.2037 389.619 45.424 387.405 47.2664H387.425ZM589.853 561.22L590.625 561.981C591.437 561.48 591.519 561.38 592.412 560.759L594.2 559.958C590.909 563.203 587.049 567.808 584.977 571.073L585.485 571.573C586.826 570.252 587.11 570.632 588.228 569.31C589.06 568.329 589.507 567.568 590.868 566.266C597.044 560.239 602.163 555.132 607.79 548.584C606.266 547.663 607.221 548.364 607.018 547.823C607.79 547.062 609.842 544.499 610.085 543.778C608.257 542.937 607.668 545.06 605.21 546.982L589.832 561.2L589.853 561.22ZM181.991 657.563C183.352 658.904 184.246 659.165 185.587 659.585L196.353 663.971C197.653 664.531 198.791 665.172 199.948 665.693C202.183 666.734 208.541 670.399 210.715 669.157C207.851 666.334 205.677 666.114 203.28 663.851C205.352 663.45 205.982 664.892 208.155 663.09C206.225 661.908 204.052 661.468 201.756 660.907C198.791 660.186 184.53 656.101 182.011 657.543L181.991 657.563ZM603.768 97.7706C605.596 99.5729 606.368 99.8332 607.871 100.935C613.457 105.08 619.044 109.005 625.036 112.229C626.438 112.99 627.941 113.931 629.404 114.592C630.42 115.053 634.767 116.294 635.864 116.114C641.978 115.133 620.628 103.938 619.653 103.458L605.819 97.3701C604.824 97.0897 604.743 96.9496 603.768 97.7706ZM684.007 140.966L680.676 137.681C676.674 133.736 674.968 128.77 670.174 127.829C669.564 130.833 673.587 133.516 674.501 138.442C675.009 141.106 673.81 141.026 675.821 142.988C677.548 144.69 686.872 147.794 690.691 149.336C692.336 149.997 694.327 150.858 695.81 150.558C695.404 148.575 693.839 147.974 690.427 145.852C688.578 144.71 685.937 142.828 684.028 140.946L684.007 140.966ZM277.974 65.7298C279.071 66.631 279.396 66.5108 280.534 66.2305L293.86 62.3656C300.218 60.5232 316.388 57.0188 320.775 53.3341C319.293 52.0925 318.663 52.473 315.656 52.8935L299.507 55.7772C294.57 57.2591 282.362 61.4043 277.974 65.7298ZM356.812 653.998C355.167 654.939 349.54 654.258 347.59 653.898L340.663 652.416C339.525 652.176 339.18 651.835 338.103 652.736C339.383 656.301 350.007 658.023 353.745 657.322C355.817 656.942 357.137 656.201 359.128 654.238C360.733 655.16 370.626 655.68 372.962 655.961L379.889 656.381C382.387 656.381 385.678 656.782 387.06 656.001C384.114 653.217 369.935 651.154 366.299 650.854C364.633 650.714 353.623 650.634 352.14 651.375C351.571 651.655 351.266 651.034 351.652 652.196C352.018 653.257 355.898 653.818 356.792 653.998H356.812ZM409.75 4.0514C411.01 2.99005 425.595 -0.194003 412.066 -0.133927C409.506 -0.133927 394.86 0.847321 393.113 2.46938C390.574 4.83239 398.171 6.35433 399.756 6.83494C397.217 8.39692 391.955 8.457 389.761 10.6198C387.141 13.203 399.695 12.2618 399.756 12.2618C403.534 12.2819 412.269 10.6197 416.169 9.85878C417.998 9.49832 419.887 9.13787 421.817 8.51708C423.99 7.81618 425.107 7.5959 427.2 7.17537C428.967 6.83494 431.201 6.55458 432.847 5.55331C431.161 4.15152 429.048 4.59208 427.2 4.83239C425.189 5.09272 423.36 4.83239 421.309 4.95254C421.228 4.95254 421.126 4.95254 421.045 4.95254C420.963 4.95254 420.862 4.95254 420.781 4.95254L415.661 4.89247C413.935 4.89247 411.335 4.97257 409.77 4.01135L409.75 4.0514ZM660.687 108.865C662.617 110.767 672.205 114.352 675.293 115.213C676.593 115.573 678.929 116.294 680.168 117.456C678.218 118.657 671.961 118.958 673.769 120.74C676.004 122.943 680.046 123.343 684.272 125.346C692.946 129.451 698.938 135.679 704.22 143.489C706.129 146.312 707.206 149.176 709.887 151.819C710.862 152.781 709.887 151.98 710.903 152.32C711.208 150.838 709.684 147.574 708.851 146.252L716.022 147.374C717.221 147.494 717.221 147.554 718.338 146.493C714.478 142.688 712.833 143.088 710.395 140.685C707.957 138.282 711.837 137.321 708.608 133.857C705.703 130.733 701.945 126.047 699.365 124.104C693.393 119.598 696.176 124.425 692.194 121.18C687.806 117.596 687.481 116.995 681.692 113.971C677.08 111.568 667.878 108.805 662.475 108.344C661.134 108.224 661.865 107.863 660.687 108.865ZM385.394 27.5613C387.344 29.1834 390.391 27.9418 394.88 28.8229C391.894 30.5251 385.861 30.2247 383.606 32.3674C388.095 36.5928 402.518 31.286 411.03 30.465L424.62 29.3235C426.184 29.1233 427.565 29.2034 429.231 29.2034C432.441 29.2034 435.264 29.2034 438.454 29.2034C444.731 29.2034 450.662 29.7841 456.919 30.4049L465.898 31.3862C490.538 34.8706 497.486 37.0934 521.009 42.8608C522.837 43.3013 528.546 45.424 530.232 44.4628C529.114 42.7807 523.853 40.5779 521.781 39.9971C505.814 35.5915 466.081 27.2809 449.24 25.6188C447.595 25.4586 446.295 25.2584 444.629 25.0581L424.112 23.376C419.257 23.1957 408.064 23.376 403.595 23.8366C399.187 24.2971 394.413 24.7177 390.005 25.8191C387.547 26.4198 386.795 26.2396 385.394 27.5613ZM567.792 570.312C545.223 592.56 530.983 602.232 505.997 616.17C502.158 618.313 498.115 620.195 494.459 621.997L477.273 629.547C475.161 630.348 473.475 631.089 471.382 631.83L454.197 637.818C452.165 638.478 450.256 638.939 448.306 639.58L405.24 648.491C404.042 648.711 403.331 648.892 402.173 649.052L384.988 651.395C384.398 651.475 382.611 651.615 382.164 651.955C379.117 654.258 394.86 653.117 395.246 653.097L406.784 651.855C410.766 651.275 414.3 650.974 418.322 650.233L441.399 645.688C443.492 645.267 444.995 644.786 447.046 644.266C456.391 641.963 461.347 640.16 470.123 637.277C472.114 636.636 473.942 635.855 476.014 635.174C481.6 633.352 493.992 627.725 499.09 625.201C515.118 617.311 530.922 607.859 545.244 596.485C549.022 593.481 570.676 575.278 575.105 569.531C576.385 567.889 578.558 566.066 579.98 564.224C582.54 560.9 586.156 557.395 588.939 553.871L600.782 538.451C602.143 536.669 603.422 534.686 604.987 533.144C605.413 534.045 605.352 533.565 605.048 534.907C604.621 536.769 603.544 538.551 604.987 540.213C607.688 537.55 608.501 533.885 609.537 531.122L613.6 521.77C615.651 517.284 618.597 513.72 621.116 507.872L623.208 503.066L622.436 502.305C618.942 505.749 600.68 530.481 596.516 536.168C594.342 539.152 592.331 541.555 590.178 544.499C584.409 552.369 575.085 563.143 567.833 570.272L567.792 570.312ZM35.7109 219.666C36.0766 220.447 35.914 219.886 35.914 220.667L34.9593 223.951C32.9076 229.959 31.6481 231.641 28.0322 237.348C27.6666 235.486 30.3277 227.035 32.3591 224.211C33.3951 222.75 34.6343 220.827 35.7313 219.666H35.7109ZM91.1069 124.625L107.114 108.845C107.338 108.664 107.541 108.504 107.764 108.344C111.441 105.601 120.46 96.6692 123.65 95.5678C123.914 97.29 123.04 97.7305 121.354 99.3526C112.741 107.703 98.9887 123.984 91.8991 133.216C77.8623 151.479 67.8679 165.617 55.8624 185.522C54.9483 187.024 40.0175 211.756 42.1302 215.34C44.4866 213.017 46.7821 210.935 48.2243 208.511L51.7996 201.943C56.8374 192.771 62.4441 184.08 68.132 175.149C75.5872 163.434 84.6877 152.52 93.1179 141.526C93.9914 140.385 95.2305 139.083 95.8806 138.242C96.8353 137 97.5464 135.979 98.5418 134.958C100.837 132.575 102.218 130.392 104.453 128.129C108.76 123.764 112.193 119.018 116.52 114.732C118.002 113.27 118.023 112.79 119.303 111.448C134.579 95.4677 144.756 85.6352 162.896 74.2607C176.303 65.85 189.974 59.2416 203.666 51.1513C212.137 46.1249 210.715 51.1914 217.256 49.5893C220.689 48.7482 226.092 44.643 227.108 42.1999C227.657 40.8983 226.905 40.6379 227.25 38.9157C228.327 37.1335 267.167 21.7539 270.072 20.6125C273.017 19.451 275.577 18.4898 278.523 17.5285L286.973 14.5648C288.497 14.0641 289.776 13.7637 291.34 13.4433C292.945 13.1029 294.063 12.5021 295.444 13.6436C293.677 15.3858 293.108 15.7262 291.34 16.6074C290.142 17.2081 288.883 17.9891 287.501 18.6299C280.554 21.9341 269.889 25.6789 264.425 31.0658C267.959 30.8254 271.311 28.5025 274.419 26.9605C277.629 25.3785 281.001 24.0769 284.17 23.1557C285.632 22.7352 287.644 22.1744 289.045 21.9542C290.589 21.7139 292.194 21.6137 293.92 21.4135L298.796 21.0931C300.522 20.9329 302.046 20.6725 303.671 22.2145C300.624 25.2183 292.722 26.4799 288.537 27.8617C280.737 30.4249 269.198 36.0521 266.497 44.7231C267.817 45.9847 268.122 45.7444 269.564 45.444L278.015 42.8808C279.802 42.1398 287.481 38.3751 289.289 39.3964C288.537 41.4189 279.376 44.0623 278.523 46.4653C280.452 47.5667 284.779 46.6856 286.973 46.4253L295.424 45.8245C297.638 45.8245 299.324 45.7645 301.071 47.4666C299.161 50.4704 293.311 52.1926 290.041 53.274L266.964 60.7035C254.857 64.6885 244.192 69.4546 232.877 76.5837C230.744 77.9254 229.119 78.9266 226.986 80.4486C225.341 81.61 223.025 83.152 221.339 84.6339C219.511 86.2359 217.459 87.4775 215.692 89.1596C213.356 91.3825 212.787 92.9645 211.081 94.7468L211.853 95.5077C212.95 94.8469 214.31 94.4864 215.692 93.8056C216.89 93.2248 218.17 92.5039 219.531 91.7429C234.36 83.5725 249.961 76.6838 265.42 70.1154C267.675 69.1542 270.864 68.4133 272.855 67.1917L273.627 67.9527C270.295 71.0967 265.217 72.1981 261.825 75.0217C262.129 75.0016 262.414 75.0016 262.84 74.9215C263.734 74.7814 262.901 74.9616 263.856 74.6812C268.224 73.4397 272.733 72.3182 276.938 70.7162C278.34 70.1955 279.294 69.755 280.777 69.2744C281.366 69.0941 284.007 68.3332 284.414 68.3131C290.548 68.1129 273.891 76.844 273.078 77.3246L258.209 85.9956C256.157 87.2973 252.785 88.9594 250.774 90.9219L253.597 90.1008C261.662 86.4362 269.788 83.4524 277.954 80.1682C282.585 78.3058 284.292 81.4699 288.72 79.988C290.752 79.3071 292.174 79.0268 294.103 78.3859L305.134 75.2419C315.738 72.3983 326.626 69.9953 337.433 68.173C338.123 68.0528 349.641 67.5121 346.919 70.3157C345.518 71.7575 324.655 74.8014 320.004 76.2632L311.797 78.9467C303.387 82.2709 295.282 85.9556 287.44 90.6616C281.346 94.3262 276.715 97.6905 271.291 103.057C272.753 103.338 273.749 102.817 275.13 102.236C276.572 101.636 277.466 101.295 278.969 100.614C287.522 96.7293 296.175 92.6641 305.113 89.5802L319.983 84.3535C323.538 83.2121 327.337 81.6701 331.014 80.769C333.593 80.1282 336.011 79.4072 338.448 78.7664C341.008 78.0856 343.222 77.3847 345.883 76.7238L368.188 71.7976C371.54 71.1367 389.538 68.4333 390.493 67.8926C388.786 67.5522 387.506 68.0328 385.617 68.0328L371.255 68.7937C367.233 68.8538 354.537 70.536 352.282 68.6736C353.684 67.5121 357.218 67.2117 358.945 66.9514L391.508 63.0264C392.727 62.9063 393.682 62.8061 394.84 62.686L404.59 61.4444C408.369 61.0439 414.402 60.2829 417.673 62.4857C422.284 65.5897 426.468 64.9088 431.77 65.3093L432.786 65.4094C437.092 65.7899 445.523 65.5496 450.215 66.0703L459.966 66.9314C465.512 67.5722 470.976 67.9727 476.38 69.5147L489.462 74.1205C499.294 78.3259 511.36 82.6914 522.004 87.2172L548.148 98.2913C550.566 99.4327 559.423 103.137 560.459 106.061C559.138 107.163 558.752 106.542 557.127 105.981C542.095 100.774 537.788 98.5316 521.233 95.1873C520.034 94.947 519.181 94.8669 517.901 94.6466C515.016 94.126 511.076 93.1647 508.415 93.6854C511.441 96.2086 513.473 95.6479 515.585 97.7305C513.737 98.7919 508.882 97.5103 506.099 97.1098C504.413 96.8695 503.153 96.549 501.488 96.3288L487.39 94.2061L435.102 90.4012C431.323 90.0608 426.428 90.5614 422.284 90.5614L398.699 91.8631C394.393 92.2235 369.224 95.0271 366.4 96.7693L375.379 96.6291C376.72 96.6091 377.045 96.3087 378.203 97.27C376.252 98.892 372.068 99.0122 370.504 100.294C373.246 100.834 380.315 98.9721 383.586 98.3113C391.569 96.7293 395.409 96.6492 402.803 95.728C404.936 95.4677 406.967 95.4677 409.202 95.1873L415.6 94.8469C422.121 94.5865 431.648 94.3262 438.149 94.6066L439.936 94.7468C442.252 94.947 453.039 94.6667 453.953 95.9283C455.355 97.8307 449.423 98.0109 448.895 99.5328C448.59 100.374 449.382 100.494 451.475 100.634C454.867 100.895 458.91 99.8132 460.961 101.535C459.031 103.358 455.477 103.878 453.262 104.419C448.651 105.561 435.549 104.599 430.45 108.865C431.73 110.066 431.669 109.746 433.01 109.786C438.657 109.926 437.58 109.265 444.548 110.327C446.396 110.607 453.201 112.77 453.953 113.991C455.578 116.655 443.227 115.033 441.216 115.033C436.869 115.033 431.222 116.134 427.118 117.416C425.961 117.776 425.839 117.756 424.803 118.517C423.706 119.338 423.421 119.618 422.487 119.739C417.226 120.419 414.768 109.966 404.022 118.597C400.02 121.821 399.776 120.72 394.535 120.299C388.136 119.779 382.489 120.419 376.07 121.321L366.847 123.083C365.121 123.483 363.739 123.704 361.972 124.144C351.002 126.868 344.989 128.99 334.284 132.595C332.476 133.196 331.278 133.856 329.673 132.335C330.648 131.213 330.79 130.692 332.232 129.311C333.593 127.989 333.756 127.789 334.548 126.527C332.639 126.147 329.165 126.527 327.113 127.128C318.094 129.711 313.097 134.417 308.648 136.62C306.962 137.441 306.556 137.802 305.052 136.4C305.865 135.098 305.276 135.238 306.596 133.877C304.219 133.416 291.727 139.384 289.939 140.265C284.271 143.068 278.868 145.852 273.282 149.156C267.817 152.38 242.567 169.402 240.718 174.588C242.344 174.829 242.811 173.887 244.558 173.166C247.564 171.905 247.463 172.666 248.397 173.587C247.646 174.869 248.397 173.647 247.869 174.849C245.533 179.935 229.688 196.136 223.716 203.405C222.152 205.307 220.811 206.589 219.267 208.451L189.182 248.122C187.679 250.184 188.106 250.705 185.871 252.928C185.018 251.466 185.769 249.804 186.338 247.621C188.817 238.029 206.672 215.12 206.896 211.996C204.052 214.799 198.303 222.209 195.825 225.653C185.526 239.911 178.335 250.605 170.798 266.345C165.151 278.14 161.941 287.732 160.072 300.468C159.544 304.053 158.935 314.426 159.869 317.39C160.377 319.052 160.783 318.892 160.723 320.674C158.346 322.136 157.452 320.013 155.786 322.196C153.288 325.48 156.761 332.83 157.086 334.331C157.31 335.353 157.371 335.553 156.355 336.614C151.947 335.092 149.814 328.764 148.961 325.5L147.539 319.433C147.214 317.871 146.95 314.907 145.853 313.625C142.968 316.989 142.521 331.368 142.278 336.374L142.217 338.397C142.217 338.817 142.217 338.657 142.217 339.158L142.298 340.92C142.846 349.17 142.765 353.516 143.72 362.647C143.903 364.31 144.045 365.731 144.268 367.454L145.629 377.306C145.934 379.068 145.975 380.35 146.239 382.112C146.503 383.874 146.848 385.176 147.275 386.918C147.498 387.799 147.803 388.681 147.925 389.442C148.128 390.623 148.209 390.583 147.112 391.724C144.532 389.181 141.566 382.333 140.368 379.589C138.519 375.364 137.362 371.939 135.919 367.714C135.188 365.591 134.741 363.789 134.192 361.646L132.852 355.839C131.694 350.372 131.064 343.463 130.841 337.896C130.617 332.309 130.374 328.784 131.044 322.737C131.166 321.675 131.085 321.035 131.227 319.953C131.938 314.386 134.335 301.47 133.278 296.203C132.547 297.445 131.796 302.591 131.531 304.293C130.191 312.744 128.362 306.516 127.651 305.315C125.275 308.078 121.74 334.692 121.09 339.438C120.989 340.219 120.887 342.682 119.77 342.242C118.612 341.781 118.998 334.532 119.12 333.13L119.282 331.368C119.302 331.027 119.303 330.987 119.323 330.607L119.587 325.801C119.587 321.235 120.4 316.709 120.867 312.163L122.796 298.526C123.589 293.96 124.523 289.514 125.458 284.889C125.986 282.285 128.667 273.935 128.18 271.492C123.325 276.278 116.601 291.377 114.326 297.264C111.908 303.512 109.694 310.061 109.328 316.729C109.227 318.672 108.292 321.395 109.714 323.037C111.908 320.874 113.107 316.909 115.098 316.208C115.504 318.271 113.98 321.755 113.127 324.038C111.685 327.943 109.978 331.948 108.922 335.913C108.577 337.195 108.028 338.417 107.683 339.698C105.834 346.527 104.737 352.935 104.067 359.924L103.945 361.446C104.25 375.324 109.572 373.682 109.064 378.127C108.617 382.192 102.869 384.615 108.881 393.787C113.615 401.016 117.109 408.706 119.018 417.037C121.842 429.392 119.912 424.466 124.117 436.501C124.523 437.663 125.193 439.245 126.087 440.286C127.001 435.72 123.751 426.529 123.975 422.043C124.28 416.095 129.886 430.133 130.109 430.674L138.276 448.617C140.896 454.564 143.821 461.133 147.132 466.82C151.845 474.91 152.17 456.727 155.766 464.517C157.025 467.281 157.127 472.788 158.366 476.673C158.793 478.034 159.91 481.258 160.682 482.48C161.433 482.2 160.499 482.74 161.007 482.059C161.373 481.559 160.641 482.099 161.352 481.579C162.368 480.838 161.758 481.298 162.368 481.919C163.221 482.82 163.932 484.002 164.582 485.003C165.964 487.146 166.999 488.928 168.198 491.071C173.865 501.204 176.161 509.975 177.42 521.149C177.624 522.911 177.461 525.074 177.481 526.956C177.481 528.278 177.482 528.639 177.319 529.98C176.06 539.813 175.552 544.038 171.733 553.991C171.286 555.132 171.245 555.713 170.493 557.015C167.06 563.062 170.311 564.524 168.889 568.89C165.984 577.821 154.384 583.889 147.112 588.395C141.262 592.019 135.229 594.522 128.911 596.365C122.898 598.107 116.885 598.568 110.71 598.588C104.677 598.588 98.3997 597.506 92.5087 595.844C88.9944 594.863 70.407 588.735 68.924 584.57C69.9397 581.746 73.2103 583.548 75.3433 581.786C71.0368 577.541 63.1348 576.039 59.1939 574.397C50.2152 570.652 42.0287 565.185 35.1017 558.296C26.2448 549.485 21.9992 538.131 18.099 526.696C15.4785 519.026 13.5079 511.136 11.8218 503.186L5.56524 467.561C5.40273 466.119 5.26054 464.978 5.0574 463.516L4.00104 455.686C3.33068 449.278 1.90881 442.169 4.1027 435.981C6.23566 429.933 6.49962 431.054 5.50424 424.106L2.57917 400.355C2.25414 397.752 2.13225 395.089 1.80723 392.525C1.68535 391.624 1.70554 391.444 1.68523 390.503L1.38047 386.458C1.29921 385.657 1.21801 385.617 1.17738 384.696C1.09612 382.232 0.44625 380.791 0.0806002 378.628C-0.244422 376.685 0.0399229 374.743 -0.224157 372.82C-0.589807 370.117 -0.0820892 367.454 -0.102403 364.73C-0.102403 363.128 0.0600979 362.447 0.141353 360.945C0.466375 355.719 0.141353 350.552 0.141353 345.285C0.141353 343.924 0.0398039 342.582 0.161687 341.24L0.933624 327.343C1.01488 326.401 1.11642 326.321 1.15705 325.32C1.56332 314.546 4.67132 296.263 7.23087 285.89C7.57621 284.468 7.67782 283.527 8.04347 282.105C8.44975 280.583 8.61222 279.622 9.0185 278.06L13.4267 262.14C19.2974 244.437 25.4321 227.696 33.6592 210.834C35.0406 208.031 36.1173 205.748 37.5799 203.004C43.3084 192.271 48.7932 181.717 55.3545 171.404C62.2816 160.51 69.3913 150.057 77.8012 139.804C80.9295 135.999 85.8862 130.252 91.0662 124.625H91.1069ZM158.732 282.826C158.366 281.004 160.113 275.376 160.885 273.474C162.266 270.07 163.079 267.426 166.41 264.122C167.101 267.527 164.481 274.916 161.515 278.02C158.793 280.883 160.58 280.643 158.711 282.826H158.732ZM134.152 198.919L139.027 194.614C139.332 196.576 136.448 201.202 134.66 202.944C132.161 205.408 129.927 206.589 127.733 208.752C127.448 206.969 132.933 200.081 134.152 198.899V198.919ZM237.204 167.079C238.2 168.02 238.118 168.16 239.256 167.78L246.183 163.274C245.756 165.176 242.384 167.84 241.328 169.602C240.17 171.504 241.165 171.384 240.272 172.886C239.886 173.507 238.281 174.628 237.225 175.67L236.717 175.169C239.378 172.065 236.717 169.602 237.225 167.079H237.204ZM272.083 54.3554C270.803 53.0938 271.169 52.9936 270.031 51.8322C268.162 52.1926 268.244 51.8322 266.192 53.0737C264.872 53.8547 263.795 54.7959 262.353 55.7371C260.139 57.179 256.97 58.7009 254.654 57.3992C258.473 56.0776 261.134 54.9762 264.405 52.3328C268.61 48.9485 269.503 51.9924 271.575 50.3102C272.571 49.4892 272.388 49.0086 273.627 47.8071C273.505 49.4091 272.754 49.7896 272.266 51.0912C271.697 52.5731 272.449 52.5931 272.103 54.3754L272.083 54.3554ZM310.273 109.686C315.981 104.059 321.913 100.634 327.702 98.7318C329.267 98.2112 330.506 97.6905 332.07 97.4302C335.483 96.9095 342.268 96.2887 345.152 98.051C343.08 100.094 339.749 100.194 336.437 100.875C328.759 102.457 321.547 104.359 314.641 107.984C313.178 108.765 311.756 109.586 310.273 109.686ZM358.701 121.06C362.114 117.836 369.874 116.094 373.307 116.755C372.007 117.836 367.721 119.438 366.136 119.959C363.881 120.7 360.773 121.461 358.701 121.04V121.06ZM679.843 671.6L678.868 672.562C677.426 673.923 676.593 674.324 675.191 675.646C673.81 676.967 672.49 678.429 671.088 679.731C669.686 681.032 668.874 681.353 667.249 682.995C657.843 692.387 631.476 712.753 619.308 720.262L603.158 730.656C595.398 735.622 587.11 740.088 579.066 744.233L563.181 751.843C560.54 752.964 557.676 753.044 555.238 754.546C556.7 754.766 567.548 753.284 569.336 752.263L570.108 753.024C567.02 756.068 559.098 759.112 554.974 760.874C552.455 761.935 550.139 762.897 547.539 764.078C539.596 767.723 525.864 770.847 517.556 770.847C516.337 770.847 514.895 770.727 513.716 770.927C512.213 771.187 511.563 771.327 510.121 772.749L512.68 775.272C514.082 774.992 514.509 774.892 516.012 774.872C517.637 774.872 520.481 775.473 517.596 776.995L511.909 779.217C499.781 783.182 487.227 785.065 474.734 787.508C463.683 789.671 452.368 791.433 441.155 792.554L415.255 794.617C411.172 794.877 403.879 793.936 400.385 794.997C399.471 796.539 400.69 797.24 398.09 798.222C393.763 799.884 374.262 799.703 369.366 799.383C360.042 798.762 364.958 799.583 359.128 795.798C355.715 793.596 348.626 794.357 344.766 794.357C330.221 794.357 315.595 792.014 301.437 788.83C295.403 787.488 289.106 786.086 283.235 784.124L272.469 780.579C267.675 779.017 263.023 777.335 258.107 775.392C247.219 771.087 236.026 766.581 225.564 760.954L214.798 755.507C208.704 752.403 187.09 741.069 177.156 733.139L172.809 728.853C172.565 728.473 172.362 728.132 172.241 727.792C173.845 727.472 174.922 728.273 176.608 729.274C186.338 735.081 196.109 740.348 206.083 745.414L210.451 747.557C212.015 748.358 213.01 748.699 214.554 749.439C224.467 754.246 237.753 760.313 248.133 763.658C273.525 771.848 267.512 770.827 290.162 773.971L302.716 775.152C305.053 775.352 304.484 775.453 306.82 774.992C301.965 772.008 290.528 769.585 285.023 768.003C277.629 765.86 270.539 763.237 263.226 760.854C257.884 759.112 222.802 747.297 219.917 744.433C221.014 743.512 220.831 743.732 221.969 743.892C226.702 744.473 231.455 746.015 236.067 747.137C241.49 748.458 246.772 749.84 252.216 751.362C257.701 752.884 262.982 754.406 268.366 755.828L284.515 759.692C290 760.754 295.18 761.895 300.665 762.977L341.17 770.306C342.978 770.566 347.549 771.608 349.113 770.707C346.208 767.983 332.7 765.139 328.353 760.854C330.831 758.771 341.374 762.316 344.766 762.496L383.22 764.258C384.642 764.258 385.089 764.238 386.552 764.419C389.843 764.839 402.904 764.739 405.769 765.099C409.567 765.58 419.988 765.28 423.97 765.64C425.656 765.8 430.125 766.121 431.405 765.38C427.037 764.539 423.056 764.178 418.587 763.698C414.178 763.237 410.116 762.897 405.769 762.416C404.59 762.276 403.615 762.136 402.437 762.015L386.552 760.654C384.317 760.413 382.428 760.313 380.153 760.033C374.749 759.392 342.166 758.09 342.166 753.765C342.166 751.182 351.815 751.382 354.537 749.72C353.339 749.48 352.201 749.54 350.942 749.64C344.604 750.08 339.241 750 333.004 749.219C321.08 747.737 308.811 746.516 297.11 743.652C292.661 742.571 243.4 729.875 239.947 727.772C241.49 726.49 242.912 727.291 244.558 727.552C252.622 728.833 258.92 730.515 266.355 731.957C276.857 734 296.013 738.906 305.581 739.947C307.084 740.108 308.485 740.408 309.948 740.128C308.75 739.126 304.687 737.725 303.021 737.064L268.427 725.048C265.766 723.947 218.8 708.227 230.44 709.709L258.168 717.399C256.38 715.717 244.213 709.989 242.019 709.048L202.041 692.026C199.766 691.065 196.109 689.764 194.098 688.101C195.195 687.18 195.154 687.34 196.414 687.601C200.253 688.382 215.468 693.649 219.49 695.09C227.535 697.974 223.919 697.053 227.697 695.271C231.151 693.649 240.698 697.013 244.619 697.974C257.579 701.138 265.075 703.04 278.197 705.263L319.983 711.011C321.385 711.171 322.644 711.371 324.087 711.451C325.59 711.531 326.768 711.852 328.19 711.571C325.041 709.629 304.382 705.464 299.222 704.342C288.232 701.979 286.709 701.979 275.638 698.014C266.375 694.71 257.173 690.024 249.23 683.876C247.097 682.214 245.919 682.274 245.126 679.751C246.467 678.489 247.016 678.489 248.458 678.69C249.778 678.87 250.408 678.81 251.525 678.99C257.741 679.991 263.836 681.673 269.991 683.195L288.456 687.08C290.528 687.481 292.417 687.861 294.611 688.282L309.989 691.406C311.167 691.626 311.979 691.906 313.056 692.127C318.907 693.288 340.378 697.834 343.811 697.173C338.997 694.229 327.865 691.826 321.507 689.844C310.09 686.259 298.43 683.496 286.912 680.171L261.54 673.002C256.259 671.26 251.058 669.838 245.898 667.736C244.639 667.235 243.786 667.095 243.339 665.853C247.889 663.25 300.096 676.607 313.564 677.328C315.23 677.428 316.591 677.768 318.175 677.448C314.316 673.643 288.619 666.414 282.281 664.311C277.243 662.629 272.164 661.728 266.903 660.987C263.531 660.506 260.057 660.106 256.644 660.146C252.094 660.206 245.837 657.062 252.033 656.842L259.732 656.601C260.971 656.601 261.195 656.842 262.292 656.221C257.742 654.839 253.008 654.118 248.458 652.696C247.463 652.376 241.49 651.154 242.648 649.532C243.278 648.631 248.194 649.032 249.494 649.032C251.038 649.032 251.566 649.072 253.09 649.232C254.329 649.372 255.162 649.232 256.421 649.392C267.959 650.934 283.967 654.278 294.611 657.402C306.109 660.787 313.523 662.409 325.63 663.39C327.966 663.59 330.242 663.73 332.557 663.29C328.738 659.525 317.911 659.105 316.144 654.198C318.886 652.636 325.712 655.74 328.698 656.381C339.058 658.564 349.438 660.506 359.961 661.748L366.116 662.188C367.538 662.309 367.965 662.429 369.447 662.429C370.605 662.429 371.377 662.429 372.515 662.429C373.876 662.429 374.323 662.249 375.582 662.168C376.659 662.108 377.573 662.168 378.65 662.168L390.96 661.668C395.53 661.668 405.139 660.566 409.669 660.006C420.11 658.744 430.369 656.902 440.688 654.899C453.364 652.416 465.837 648.451 478.106 644.426L490.416 639.84C507.805 632.811 524.402 624.22 540.145 613.887L558.854 600.73C563.262 597.366 567.345 594.282 571.408 590.497L586.785 576.86L612.198 549.285C619.186 541.235 625.829 532.864 630.785 524.774C633.243 520.769 635.782 516.603 638.139 512.398C644.883 500.303 651.14 488.247 657.092 475.751C660.057 469.543 662.272 463.516 664.912 457.308C665.339 456.287 665.623 455.305 666.009 454.284L670.478 441.908C670.824 440.787 671.068 439.886 671.393 438.884C675.882 424.787 679.315 410.508 681.509 395.93L682.829 383.794C682.951 382.473 683.032 382.112 683.053 380.771L683.581 359.283C683.622 353.115 683.134 348.73 678.584 343.864C674.622 339.618 674.318 333.931 673.465 328.704C673.119 326.562 672.591 324.599 672.083 322.396C669.707 312.123 667.045 301.63 662.922 291.817C653.496 269.469 651.485 264.803 636.615 242.795C634.117 239.11 625.503 228.257 621.441 224.352C617.642 220.687 614.047 215.701 609.638 212.517L603.483 207.17C595.256 199.8 586.988 193.953 578.619 188.426C574.374 185.622 570.108 183.059 566.065 180.796C559.809 177.292 553.857 173.927 547.356 170.864C528.424 161.932 505.286 152.881 485.318 148.035L466.609 143.309C463.419 142.528 460.393 142.027 457.366 140.645C455.172 139.644 456.208 139.944 455.334 138.482C453.567 138.142 451.617 138.022 449.687 137.822L441.48 136.96C440.444 136.82 439.977 136.9 438.921 136.82L433.537 136.42C432.4 136.28 431.811 136.34 430.714 136.34C429.516 136.34 429.292 136.199 428.155 136.099H412.005C410.827 136.159 410.441 136.34 409.181 136.34C404.732 136.36 400.284 136.9 395.855 137.401C391.386 137.902 383.322 139.704 379.95 139.764C376.131 139.824 377.187 138.202 379.95 137.021C381.636 136.3 383.687 136.059 385.333 134.678C382.042 134.037 374.485 136.42 371.235 137.241C368.777 137.862 366.664 138.522 364.308 139.203C361.992 139.864 359.859 140.525 357.381 141.326C354.923 142.127 352.912 142.788 350.454 143.609C340.967 146.733 331.806 150.518 322.502 154.423C312.223 158.748 297.475 166.057 287.887 171.284C285.754 172.446 276.694 178.133 274.054 176.631C273.81 175.129 275.029 174.248 276.085 173.447C288.598 163.815 300.076 157.206 314.316 150.157C318.785 147.934 323.518 146.012 328.149 144.17C346.899 136.76 364.999 132.575 383.769 130.332C385.089 130.172 386.044 130.092 387.364 129.952C388.725 129.811 389.741 129.751 390.96 129.611C393.276 129.311 395.469 129.411 397.887 129.211C401.198 128.93 411.233 128.59 414.544 128.87L446.579 130.572C455.497 131.634 460.839 131.954 470.935 133.636L481.194 135.619C484.79 136.5 492.407 139.864 494.52 143.228C493.768 143.849 493.707 143.789 492.976 144.23L507.074 147.534C511.827 148.816 516.317 149.917 521.172 151.479L549.103 160.931C553.938 162.893 558.407 164.676 563.201 166.899C573.988 171.885 580.976 176.03 591.133 182.498C593.631 184.08 602.529 190.328 604.966 189.948C603.95 188.907 602.427 186.724 601.554 185.662C599.543 183.199 590.97 175.349 588.817 173.687C583.23 169.402 577.4 165.837 571.652 162.733C566.065 159.709 560.276 157.006 554.486 154.563C549.57 152.48 540.531 149.296 539.373 143.489C541.1 141.787 541.506 141.666 543.212 141.226C544.33 140.946 545.609 140.765 546.808 140.645C564.379 138.783 543.131 131.233 538.093 129.431L506.058 119.418C504.636 118.978 504.331 119.058 502.991 117.736C503.763 117.295 503.803 117.335 505.307 117.596C506.221 117.756 506.708 117.936 507.622 118.137C509.247 118.477 510.629 118.797 512.234 119.158C520.034 120.9 532.426 124.364 539.921 126.347C544.37 127.528 575.471 137.641 576.832 137.441C575.816 136.58 572.464 135.398 571.184 134.918C567.528 133.556 556.66 130.172 556.091 126.067C555.441 121.461 563.628 122.242 565.557 121.941C574.719 120.459 549.895 112.129 548.88 111.748C539.718 108.444 530.658 105 521.7 101.155C519.77 100.334 518.124 99.7932 516.316 98.0109C518.084 96.549 521.232 97.7105 523.244 98.1711L543.232 103.097C547.803 104.259 552.049 105.36 556.558 106.682C563.567 108.705 563.14 107.323 568.34 107.924C574.414 108.624 577.624 110.106 583.21 112.089C587.598 113.651 586.582 110.507 589.873 109.586C592.351 108.885 594.2 111.308 596.536 112.569C602.387 115.693 603.097 109.786 609.862 115.013L623.188 127.068C623.513 124.985 621.075 125.065 622.416 122.762C624.874 123.623 635.214 133.977 638.017 137.181C641.389 141.026 640.455 139.243 642.648 139.704C645.452 140.305 655.324 150.317 658.29 153.582C659.367 154.763 659.123 154.863 660.321 156.105C661.134 156.966 662.089 157.707 662.82 158.628C665.42 161.832 669.036 165.837 671.86 168.981C677.71 175.509 683.195 182.639 688.152 189.447C690.671 192.912 693.047 196.416 695.322 199.56C699.974 206.008 704.545 213.177 708.303 220.026C709.318 221.868 710.273 223.41 711.35 225.333C712.386 227.155 713.158 228.717 714.133 230.379C716.002 233.603 717.668 237.248 719.333 240.492C722.766 247.261 725.692 254.069 728.536 260.958C734.061 274.295 738.428 287.752 741.922 301.65C744.848 313.345 746.533 323.297 748.687 335.012C749.621 340.079 749.926 345.285 750.556 350.432L751.673 363.068C751.978 372.079 753.136 388.721 752.323 397.692C752.323 397.792 752.282 398.093 752.282 398.193L751.531 414.373C751.389 415.415 751.47 415.835 751.368 416.896C750.921 422.243 748.423 442.048 748.951 444.692C752.039 439.806 753.44 434.198 755.004 428.772C759.941 411.59 762.967 393.967 764.268 376.205L764.897 359.283C764.897 359.283 764.897 359.103 764.897 359.023L764.775 356.74C764.755 356.319 764.735 356.179 764.735 355.739L763.455 334.011C762.297 322.556 759.128 305.234 755.492 294.601C754.944 292.999 754.822 292.118 754.293 290.556C753.826 289.134 753.481 288.173 753.014 286.771C752.709 285.85 747.773 275.096 749.723 275.096C751.429 275.096 757.442 288.093 758.336 290.315C762.013 299.427 765.852 308.579 768.98 317.85C772.068 326.962 775.542 336.254 777.492 345.646L779.848 353.476C780.397 354.818 780.701 356.159 781.798 357.261C782.144 355.558 781.798 353.556 781.575 351.694C781.433 350.592 781.331 349.971 781.169 348.91L780.255 340.579C780.031 338.957 779.645 336.875 781.026 335.273C783.403 338.056 786.979 359.303 788.705 362.067C789.01 360.585 788.827 359.524 788.644 358.022C788.482 356.62 788.421 355.358 788.278 353.976C787.669 347.989 784.602 336.975 783.383 330.226C782.855 327.343 782.57 321.996 785.231 328.204C787.994 334.672 792.727 349.21 794.007 355.739C794.291 357.221 794.637 358.262 794.941 359.784C796.912 369.636 798.293 379.389 799.147 389.341C799.228 390.283 799.35 390.363 799.39 391.364L799.634 411.069C799.634 412.451 799.654 413.472 799.634 414.854L799.431 417.878C798.984 423.545 798.74 429.172 797.968 434.799L794.616 454.765C794.088 457.328 793.784 460.011 793.337 462.595C791.976 470.525 790.107 478.495 788.299 486.345C786.064 496.037 779.95 517.324 776.334 525.775C775.237 528.318 774.404 530.962 773.409 533.605L766.725 549.525C763.252 557.575 759.006 565.485 755.045 573.275C753.623 576.079 752.1 578.582 750.515 581.366C741.252 597.767 730.648 613.807 718.643 628.626C706.617 643.485 693.88 657.422 679.742 671.56L679.843 671.6ZM363.983 676.246C360.895 678.83 343.283 681.373 337.575 676.006C338.712 675.365 348.423 676.647 350.657 676.627L363.983 676.246ZM365.263 696.712C366.38 696.072 369.529 696.252 370.91 696.412C372.941 696.672 374.546 696.652 376.557 696.572L382.205 696.312C384.114 696.312 386.328 696.092 388.095 696.452C385.353 699.156 380.458 701.298 376.821 701.138C376.11 701.098 376.171 701.058 375.542 700.978C374.81 700.898 374.627 700.918 373.998 700.838C371.438 700.477 367.294 698.715 365.283 696.712H365.263ZM393.722 697.453C395.165 697.013 396.627 696.873 398.09 696.692C399.004 696.572 399.471 696.612 400.406 696.512C401.421 696.412 401.604 696.312 402.722 696.312C405.362 696.312 409.445 696.452 411.944 697.213C407.922 699.676 397.115 699.396 393.743 697.473L393.722 697.453ZM692.682 382.032C691.138 377.086 692.316 367.233 692.295 361.566C692.295 360.425 692.214 359.403 692.316 358.282L692.682 354.737C693.332 355.839 694.693 369.817 694.611 371.659C694.571 372.76 694.266 374.042 694.103 375.203C693.86 376.866 693.453 380.69 692.682 382.032ZM706.8 271.612C708.201 272.993 709.867 275.537 710.761 276.918C712 278.881 713.117 280.623 714.235 282.486C720.065 292.078 725.57 304.293 727.723 315.087C730.811 330.587 729.348 338.357 726.118 353.236C725.712 355.098 725.488 357.02 723.965 358.803L721.771 342.622C721.588 332.569 718.318 314.646 715.738 304.473L709.867 282.746C709.258 280.463 706.556 273.314 706.82 271.632L706.8 271.612ZM701.153 259.977C700.096 258.875 697.232 252.007 696.135 249.624C693.433 243.776 687.766 233.503 682.951 228.877C678.665 224.752 670.397 225.793 666.903 211.475C666.456 209.653 665.684 207.931 665.014 206.168C664.364 204.426 663.775 202.764 662.983 200.862C660.85 195.695 657.924 190.128 654.999 185.202C654.207 183.86 652.805 181.477 652.704 179.895C656.645 183.179 658.31 184.721 661.825 189.247C664.303 192.431 666.883 194.994 670.174 199.36C682.342 215.5 691.625 231.561 699.324 249.904C700.401 252.467 701.62 257.694 701.153 260.017V259.977Z" fill="#2E2E47"/>
</g>
<defs>
<clipPath id="clip0_942_48587">
<rect width="800" height="800" fill="white"/>
</clipPath>
</defs>
</svg>
