<svg width="263" height="64" viewBox="0 0 263 64" fill="none" xmlns="http://www.w3.org/2000/svg">
<g clip-path="url(#clip0_510_32965)">
<path d="M36.2887 2.53587C36.2887 2.53587 29.6636 -0.368042 18.5839 -0.368042C7.50412 -0.368042 0.862291 2.53587 0.862291 2.53587C0.862291 2.53587 0.262752 15.3841 2.78149 22.6456C7.21942 35.4134 18.5671 39.0006 18.5671 39.0006C18.5671 39.0006 29.9148 35.4134 34.3528 22.6456C36.8715 15.3875 36.272 2.53587 36.272 2.53587H36.2887Z" fill="#E30613"/>
<path d="M30.3503 13.5989V20.6762H22.0907V28.9357H15.0135V20.6762H6.75391V13.5989H15.0135V5.35608H22.0907V13.5989H30.3503Z" fill="white"/>
<path d="M50.7077 10.5476C51.2235 10.8826 51.8263 11.0634 52.6436 11.0634C53.7288 11.0634 54.613 10.5142 54.613 9.27823C54.613 7.55999 50.6072 7.34229 50.6072 5.05466C50.6072 3.65127 51.8431 2.76703 53.3771 2.76703C53.7958 2.76703 54.4958 2.83402 55.0953 3.05173L54.9614 3.83548C54.5762 3.61777 53.9599 3.50054 53.3771 3.50054C52.4761 3.50054 51.4914 3.88572 51.4914 5.00107C51.4914 6.75279 55.4973 6.76954 55.4973 9.32177C55.4973 11.0902 53.98 11.7903 52.6269 11.7903C51.7761 11.7903 51.1096 11.6228 50.6407 11.4218L50.7244 10.5376H50.7077V10.5476Z" fill="#101019"/>
<path d="M62.2565 6.12311C61.821 5.93889 61.322 5.78817 60.8865 5.78817C59.3525 5.78817 58.485 6.90686 58.485 8.45763C58.485 9.90791 59.3693 11.1271 60.8062 11.1271C61.3052 11.1271 61.7741 11.0099 62.2397 10.8424L62.3067 11.5759C61.7741 11.7601 61.2717 11.7936 60.6722 11.7936C58.619 11.7936 57.6176 10.2261 57.6176 8.45763C57.6176 6.48819 58.887 5.12164 60.7727 5.12164C61.5397 5.12164 62.0923 5.30586 62.3067 5.37285L62.2397 6.12311H62.2565Z" fill="#101019"/>
<path d="M64.6279 2.25122H65.4117V6.34082H65.4452C65.7801 5.6408 66.4969 5.10489 67.4314 5.10489C69.1496 5.10489 69.6185 6.24034 69.6185 7.82459V11.6462H68.8348V7.84134C68.8348 6.73939 68.617 5.78817 67.3175 5.78817C65.9141 5.78817 65.4318 7.12457 65.4318 8.22317V11.6429H64.648V2.25122H64.6313H64.6279Z" fill="#101019"/>
<path d="M79.1607 11.663H78.1759L76.441 6.13989H76.4075L74.6725 11.663H73.7213L71.6681 5.2724H72.5356L74.2203 10.7955H74.2538L76.039 5.2724H76.9903L78.675 10.7955H78.7085L80.477 5.2724H81.2607L79.1573 11.663H79.1607Z" fill="#101019"/>
<path d="M87.5745 11.4654C87.0252 11.6831 86.3051 11.8171 85.7223 11.8171C83.6021 11.8171 82.8184 10.3835 82.8184 8.48107C82.8184 6.57862 83.9036 5.14508 85.5046 5.14508C87.3065 5.14508 88.04 6.59536 88.04 8.31695V8.71887H83.6691C83.6691 10.072 84.4026 11.1539 85.7725 11.1539C86.3553 11.1539 87.1927 10.9194 87.5577 10.6716V11.4721H87.5745V11.4654ZM87.1893 8.02555C87.1893 6.90686 86.7371 5.80491 85.5548 5.80491C84.3725 5.80491 83.6691 6.97384 83.6691 8.02555H87.1893Z" fill="#101019"/>
<path d="M91.3122 3.57087H90.5285V2.51917H91.3122V3.57087ZM90.5251 5.27236H91.3089V11.663H90.5251V5.27236Z" fill="#101019"/>
<path d="M93.6802 10.9965L97.5186 5.93889H93.8309V5.25562H98.4363V5.93889L94.5979 10.9797H98.4363V11.663H93.6802V10.9965Z" fill="#101019"/>
<path d="M105.095 11.4654C104.546 11.6831 103.826 11.8171 103.243 11.8171C101.123 11.8171 100.339 10.3835 100.339 8.48107C100.339 6.57862 101.424 5.14508 103.025 5.14508C104.827 5.14508 105.561 6.59536 105.561 8.31695V8.71887H101.19C101.19 10.072 101.923 11.1539 103.293 11.1539C103.876 11.1539 104.713 10.9194 105.078 10.6716V11.4721H105.095V11.4654ZM104.713 8.02555C104.713 6.90686 104.261 5.80491 103.079 5.80491C101.896 5.80491 101.193 6.97384 101.193 8.02555H104.713Z" fill="#101019"/>
<path d="M108.033 6.69253C108.033 5.99251 108.033 5.72456 107.982 5.259H108.766V6.49492H108.783C109.067 5.77815 109.617 5.10828 110.417 5.10828C110.602 5.10828 110.836 5.14177 110.967 5.17526V6.00926C110.799 5.95902 110.581 5.92553 110.384 5.92553C109.131 5.92553 108.8 7.32892 108.8 8.47775V11.6329H108.016V6.67579L108.033 6.69253Z" fill="#101019"/>
<path d="M113.974 3.57087H113.19V2.51917H113.974V3.57087ZM113.19 5.27236H113.974V11.663H113.19V5.27236Z" fill="#101019"/>
<path d="M116.443 10.7285C116.925 10.963 117.495 11.1304 118.111 11.1304C118.861 11.1304 119.531 10.7118 119.531 9.995C119.531 8.47772 116.46 8.70883 116.46 6.85662C116.46 5.58721 117.495 5.12164 118.546 5.12164C118.881 5.12164 119.565 5.18863 120.131 5.40634L120.064 6.08962C119.645 5.9054 119.079 5.78817 118.643 5.78817C117.826 5.78817 117.257 6.03937 117.257 6.85662C117.257 8.0423 120.395 7.89158 120.395 9.995C120.395 11.3481 119.126 11.8137 118.158 11.8137C117.541 11.8137 116.922 11.7467 116.373 11.5123L116.44 10.7285H116.443Z" fill="#101019"/>
<path d="M126.94 6.12311C126.504 5.93889 126.005 5.78817 125.57 5.78817C124.036 5.78817 123.169 6.90686 123.169 8.45763C123.169 9.90791 124.053 11.1271 125.49 11.1271C125.989 11.1271 126.458 11.0099 126.923 10.8424L126.99 11.5759C126.458 11.7601 125.955 11.7936 125.356 11.7936C123.302 11.7936 122.301 10.2261 122.301 8.45763C122.301 6.48819 123.57 5.12164 125.456 5.12164C126.223 5.12164 126.776 5.30586 126.99 5.37285L126.923 6.12311H126.94Z" fill="#101019"/>
<path d="M129.311 2.25122H130.095V6.34082H130.128C130.463 5.6408 131.18 5.10489 132.115 5.10489C133.833 5.10489 134.302 6.24034 134.302 7.82459V11.6462H133.518V7.84134C133.518 6.73939 133.3 5.78817 132.001 5.78817C130.597 5.78817 130.115 7.12457 130.115 8.22317V11.6429H129.331V2.25122H129.315H129.311Z" fill="#101019"/>
<path d="M141.543 11.4654C140.994 11.6831 140.274 11.8171 139.691 11.8171C137.571 11.8171 136.787 10.3835 136.787 8.48107C136.787 6.57862 137.872 5.14508 139.473 5.14508C141.275 5.14508 142.009 6.59536 142.009 8.31695V8.71887H137.638C137.638 10.072 138.371 11.1539 139.741 11.1539C140.324 11.1539 141.161 10.9194 141.526 10.6716V11.4721H141.543V11.4654ZM141.158 8.02555C141.158 6.90686 140.706 5.80491 139.523 5.80491C138.341 5.80491 137.638 6.97384 137.638 8.02555H141.158Z" fill="#101019"/>
<path d="M149.036 2.90436H153.323V3.65462H149.903V6.77624H153.142V7.52651H149.903V10.896H153.474V11.6462H149.036V2.90436Z" fill="#101019"/>
<path d="M156.963 3.57087H156.18V2.51917H156.963V3.57087ZM156.176 5.27236H156.96V11.663H156.176V5.27236Z" fill="#101019"/>
<path d="M164.989 11.663H164.205V10.6448H164.188C163.753 11.462 163.103 11.8137 162.202 11.8137C160.451 11.8137 159.566 10.3634 159.566 8.47774C159.566 6.59203 160.317 5.14175 162.202 5.14175C163.455 5.14175 164.088 6.05948 164.188 6.37767H164.205V2.28473H164.989V11.6797V11.663ZM162.303 11.1304C163.706 11.1304 164.188 9.62993 164.188 8.46099C164.188 7.29206 163.706 5.79153 162.303 5.79153C160.802 5.79153 160.417 7.22507 160.417 8.46099C160.417 9.69691 160.802 11.1304 162.303 11.1304Z" fill="#101019"/>
<path d="M172.933 11.1304C172.933 12.9156 172.133 14.3693 169.946 14.3693C169.112 14.3693 168.345 14.1348 168.01 14.0343L168.077 13.2506C168.559 13.5018 169.262 13.7027 169.962 13.7027C171.999 13.7027 172.166 12.219 172.166 10.4137H172.133C171.697 11.3481 170.997 11.6663 170.197 11.6663C168.161 11.6663 167.511 9.8811 167.511 8.47771C167.511 6.54177 168.261 5.14172 170.147 5.14172C170.997 5.14172 171.55 5.25895 172.133 6.02596H172.166V5.29245H172.95V11.1505L172.933 11.1338V11.1304ZM170.197 10.9797C171.63 10.9797 172.133 9.62655 172.133 8.46096C172.133 6.92694 171.681 5.7915 170.247 5.7915C168.814 5.7915 168.361 7.22504 168.361 8.46096C168.361 9.69688 168.861 10.9797 170.197 10.9797Z" fill="#101019"/>
<path d="M180.091 11.4654C179.542 11.6831 178.822 11.8171 178.239 11.8171C176.119 11.8171 175.335 10.3835 175.335 8.48107C175.335 6.57862 176.42 5.14508 178.021 5.14508C179.823 5.14508 180.557 6.59536 180.557 8.31695V8.71887H176.186C176.186 10.072 176.919 11.1539 178.289 11.1539C178.872 11.1539 179.709 10.9194 180.074 10.6716V11.4721H180.091V11.4654ZM179.709 8.02555C179.709 6.90686 179.257 5.80491 178.075 5.80491C176.892 5.80491 176.189 6.97384 176.189 8.02555H179.709Z" fill="#101019"/>
<path d="M183.029 6.77289C183.029 6.29058 183.029 5.78817 182.978 5.27237H183.745V6.40781H183.779C184.047 5.82501 184.512 5.12164 185.849 5.12164C187.433 5.12164 188.036 6.17335 188.036 7.57339V11.663H187.252V7.77435C187.252 6.57193 186.817 5.78817 185.735 5.78817C184.301 5.78817 183.849 7.05759 183.849 8.12604V11.663H183.065V6.77289H183.032H183.029Z" fill="#101019"/>
<path d="M193.459 5.12164C195.529 5.12164 196.446 6.72265 196.446 8.45763C196.446 10.1926 195.529 11.7936 193.459 11.7936C191.389 11.7936 190.471 10.1926 190.471 8.45763C190.471 6.72265 191.389 5.12164 193.459 5.12164ZM193.459 11.1304C194.845 11.1304 195.579 9.94475 195.579 8.46098C195.579 6.9772 194.845 5.79152 193.459 5.79152C192.072 5.79152 191.338 6.9772 191.338 8.46098C191.338 9.94475 192.072 11.1304 193.459 11.1304Z" fill="#101019"/>
<path d="M198.416 10.7285C198.898 10.963 199.467 11.1304 200.084 11.1304C200.834 11.1304 201.504 10.7118 201.504 9.995C201.504 8.47772 198.432 8.70883 198.432 6.85662C198.432 5.58721 199.467 5.12164 200.519 5.12164C200.854 5.12164 201.537 5.18863 202.103 5.40634L202.036 6.08962C201.618 5.9054 201.052 5.78817 200.616 5.78817C199.799 5.78817 199.229 6.03937 199.229 6.85662C199.229 8.0423 202.368 7.89158 202.368 9.995C202.368 11.3481 201.098 11.8137 200.13 11.8137C199.514 11.8137 198.895 11.7467 198.345 11.5123L198.412 10.7285H198.416Z" fill="#101019"/>
<path d="M204.257 10.7285C204.739 10.963 205.309 11.1304 205.925 11.1304C206.675 11.1304 207.345 10.7118 207.345 9.995C207.345 8.47772 204.274 8.70883 204.274 6.85662C204.274 5.58721 205.309 5.12164 206.36 5.12164C206.695 5.12164 207.378 5.18863 207.945 5.40634L207.878 6.08962C207.459 5.9054 206.893 5.78817 206.457 5.78817C205.64 5.78817 205.071 6.03937 205.071 6.85662C205.071 8.0423 208.209 7.89158 208.209 9.995C208.209 11.3481 206.94 11.8137 205.972 11.8137C205.355 11.8137 204.736 11.7467 204.187 11.5123L204.254 10.7285H204.257Z" fill="#101019"/>
<path d="M214.888 11.4654C214.339 11.6831 213.619 11.8171 213.036 11.8171C210.916 11.8171 210.132 10.3835 210.132 8.48107C210.132 6.57862 211.217 5.14508 212.818 5.14508C214.62 5.14508 215.354 6.59536 215.354 8.31695V8.71887H210.983C210.983 10.072 211.716 11.1539 213.086 11.1539C213.669 11.1539 214.506 10.9194 214.871 10.6716V11.4721H214.888V11.4654ZM214.503 8.02555C214.503 6.90686 214.051 5.80491 212.868 5.80491C211.686 5.80491 210.983 6.97384 210.983 8.02555H214.503Z" fill="#101019"/>
<path d="M217.826 6.77289C217.826 6.29058 217.826 5.78817 217.775 5.27237H218.542V6.40781H218.576C218.844 5.82501 219.309 5.12164 220.646 5.12164C222.23 5.12164 222.833 6.17335 222.833 7.57339V11.663H222.049V7.77435C222.049 6.57193 221.614 5.78817 220.532 5.78817C219.098 5.78817 218.646 7.05759 218.646 8.12604V11.663H217.862V6.77289H217.829H217.826Z" fill="#101019"/>
<path d="M225.284 10.7285C225.767 10.963 226.336 11.1304 226.952 11.1304C227.702 11.1304 228.372 10.7118 228.372 9.995C228.372 8.47772 225.301 8.70883 225.301 6.85662C225.301 5.58721 226.336 5.12164 227.388 5.12164C227.723 5.12164 228.406 5.18863 228.972 5.40634L228.905 6.08962C228.486 5.9054 227.92 5.78817 227.485 5.78817C226.667 5.78817 226.098 6.03937 226.098 6.85662C226.098 8.0423 229.236 7.89158 229.236 9.995C229.236 11.3481 227.967 11.8137 226.999 11.8137C226.383 11.8137 225.763 11.7467 225.214 11.5123L225.281 10.7285H225.284Z" fill="#101019"/>
<path d="M235.765 6.12311C235.329 5.93889 234.83 5.78817 234.395 5.78817C232.861 5.78817 231.993 6.90686 231.993 8.45763C231.993 9.90791 232.877 11.1271 234.314 11.1271C234.813 11.1271 235.282 11.0099 235.748 10.8424L235.815 11.5759C235.282 11.7601 234.78 11.7936 234.18 11.7936C232.127 11.7936 231.126 10.2261 231.126 8.45763C231.126 6.48819 232.395 5.12164 234.281 5.12164C235.048 5.12164 235.6 5.30586 235.815 5.37285L235.748 6.12311H235.765Z" fill="#101019"/>
<path d="M238.133 2.25122H238.916V6.34082H238.95C239.285 5.6408 240.002 5.10489 240.936 5.10489C242.654 5.10489 243.123 6.24034 243.123 7.82459V11.6462H242.34V7.84134C242.34 6.73939 242.122 5.78817 240.822 5.78817C239.419 5.78817 238.937 7.12457 238.937 8.22317V11.6429H238.153V2.25122H238.136H238.133Z" fill="#101019"/>
<path d="M249.748 10.628H249.715C249.363 11.395 248.479 11.8137 247.678 11.8137C245.86 11.8137 245.575 10.5778 245.575 10.0117C245.575 7.8748 247.862 7.77432 249.514 7.77432H249.664V7.43938C249.664 6.35418 249.279 5.80489 248.214 5.80489C247.548 5.80489 246.928 5.95561 246.328 6.33744V5.57043C246.811 5.33597 247.648 5.13501 248.214 5.13501C249.798 5.13501 250.452 5.85178 250.452 7.51977V10.3399C250.452 10.8558 250.452 11.2409 250.519 11.6764H249.752V10.6246L249.748 10.628ZM249.681 8.4442H249.447C248.077 8.4442 246.459 8.57817 246.459 9.97822C246.459 10.8122 247.059 11.1304 247.795 11.1304C249.648 11.1304 249.681 9.51265 249.681 8.82603V8.44085V8.4442Z" fill="#101019"/>
<path d="M253.854 5.93892H252.568V5.25564H253.854V4.78673C253.854 3.45033 253.905 2.10052 255.539 2.10052C255.79 2.10052 256.122 2.13402 256.273 2.2345L256.222 2.91777C256.055 2.83404 255.82 2.7838 255.589 2.7838C254.504 2.7838 254.621 3.95273 254.621 4.71974V5.26904H256.055V5.95231H254.621V11.6597H253.838V5.95231L253.854 5.93557V5.93892Z" fill="#101019"/>
<path d="M261.213 5.9389H259.763V10.0787C259.763 10.6615 259.981 11.1304 260.614 11.1304C260.915 11.1304 261.113 11.0635 261.347 10.9797L261.397 11.6295C261.213 11.6965 260.815 11.797 260.429 11.797C259.026 11.797 258.979 10.829 258.979 9.66007V5.92215H257.726V5.23888H258.979V3.70486L259.763 3.42017V5.23888H261.213V5.9389Z" fill="#101019"/>
<path d="M56.951 21.1585C56.4017 20.8738 55.6146 20.7733 54.9983 20.7733C52.7274 20.7733 51.4614 22.3743 51.4614 24.5447C51.4614 26.7151 52.6973 28.3161 54.9983 28.3161C55.5811 28.3161 56.4486 28.2491 56.951 27.9309L57.0012 28.6812C56.5189 28.9659 55.551 29.0496 54.9983 29.0496C52.2451 29.0496 50.5939 27.2309 50.5939 24.528C50.5939 21.825 52.2954 20.0063 54.9983 20.0063C55.5141 20.0063 56.5491 20.09 57.0012 20.3412L56.951 21.1417V21.1585Z" fill="#101019"/>
<path d="M62.6751 22.3944C64.7451 22.3944 65.6628 23.9954 65.6628 25.7304C65.6628 27.4654 64.7451 29.0664 62.6751 29.0664C60.6052 29.0664 59.6875 27.4654 59.6875 25.7304C59.6875 23.9954 60.6052 22.3944 62.6751 22.3944ZM62.6751 28.4032C64.0618 28.4032 64.7953 27.2175 64.7953 25.7337C64.7953 24.25 64.0618 23.0643 62.6751 23.0643C61.2885 23.0643 60.555 24.25 60.555 25.7337C60.555 27.2175 61.2885 28.4032 62.6751 28.4032Z" fill="#101019"/>
<path d="M68.1313 24.0457C68.1313 23.5633 68.1313 23.0609 68.0811 22.5451H68.8481V23.6806H68.8816C69.1495 23.0978 69.6151 22.3944 70.9515 22.3944C72.5357 22.3944 73.1386 23.4461 73.1386 24.8462V28.9358H72.3549V25.0471C72.3549 23.8447 71.9362 23.0609 70.8376 23.0609C69.4041 23.0609 68.9519 24.3304 68.9519 25.3988V28.9358H68.1681V24.0457H68.1346H68.1313Z" fill="#101019"/>
<path d="M76.5918 23.2117H75.3057V22.5284H76.5918V22.0595C76.5918 20.7231 76.6421 19.3733 78.2766 19.3733C78.5278 19.3733 78.8594 19.4068 79.0101 19.5073L78.9598 20.1905C78.7924 20.1068 78.5579 20.0566 78.3268 20.0566C77.2416 20.0566 77.3588 21.2255 77.3588 21.9925V22.5418H78.7924V23.2251H77.3588V28.9324H76.5751V23.2251L76.5918 23.2083V23.2117Z" fill="#101019"/>
<path d="M85.4877 28.718C84.9384 28.9357 84.2183 29.0697 83.6355 29.0697C81.5153 29.0697 80.7316 27.6362 80.7316 25.7337C80.7316 23.8313 81.8168 22.3977 83.4178 22.3977C85.2197 22.3977 85.9533 23.848 85.9533 25.5696V25.9715H81.5823C81.5823 27.3247 82.3158 28.4065 83.6857 28.4065C84.2685 28.4065 85.1059 28.1721 85.4709 27.9242V28.7247H85.4877V28.718ZM85.1025 25.2815C85.1025 24.1628 84.6503 23.0609 83.468 23.0609C82.2857 23.0609 81.5823 24.2298 81.5823 25.2815H85.1025ZM83.7695 20.0766H84.7709L83.1867 21.8786H82.6039L83.7728 20.0766H83.7695Z" fill="#101019"/>
<path d="M93.4962 28.919H92.7124V27.9008H92.6789C92.2435 28.718 91.5937 29.0697 90.6927 29.0697C88.941 29.0697 88.0568 27.6194 88.0568 25.7337C88.0568 23.848 88.807 22.3977 90.6927 22.3977C91.9454 22.3977 92.5784 23.3155 92.6789 23.6337H92.7124V19.5441H93.4962V28.9391V28.9223V28.919ZM90.81 28.3864C92.2133 28.3864 92.6957 26.8859 92.6957 25.717C92.6957 24.548 92.2133 23.0475 90.81 23.0475C89.3094 23.0475 88.9243 24.4811 88.9243 25.717C88.9243 26.9529 89.3094 28.3864 90.81 28.3864Z" fill="#101019"/>
<path d="M100.657 28.718C100.108 28.9357 99.3876 29.0697 98.8048 29.0697C96.6846 29.0697 95.9009 27.6362 95.9009 25.7337C95.9009 23.8313 96.9861 22.3977 98.5871 22.3977C100.389 22.3977 101.123 23.848 101.123 25.5696V25.9715H96.7516C96.7516 27.3247 97.4851 28.4065 98.855 28.4065C99.4378 28.4065 100.275 28.1721 100.64 27.9242V28.7247H100.657V28.718ZM100.272 25.2815C100.272 24.1628 99.8197 23.0609 98.6373 23.0609C97.455 23.0609 96.7516 24.2298 96.7516 25.2815H100.272ZM98.9388 20.0766H99.9402L98.356 21.8786H97.7732L98.9421 20.0766H98.9388Z" fill="#101019"/>
<path d="M103.611 23.9619C103.611 23.2619 103.611 22.994 103.561 22.5284H104.345V23.7643H104.378C104.663 23.0476 105.212 22.3777 106.013 22.3777C106.197 22.3777 106.431 22.4112 106.562 22.4447V23.2787C106.395 23.2284 106.177 23.1949 105.979 23.1949C104.727 23.1949 104.395 24.5983 104.395 25.7472V28.9023H103.611V23.9452V23.9619Z" fill="#101019"/>
<path d="M112.42 27.9008H112.387C112.035 28.6678 111.151 29.0865 110.35 29.0865C108.531 29.0865 108.247 27.8506 108.247 27.2845C108.247 25.1476 110.534 25.0471 112.186 25.0471H112.336V24.7122C112.336 23.627 111.951 23.0777 110.886 23.0777C110.219 23.0777 109.6 23.2284 109 23.6103V22.8433C109.483 22.6088 110.32 22.4078 110.886 22.4078C112.47 22.4078 113.123 23.1246 113.123 24.7926V27.6128C113.123 28.1286 113.123 28.5138 113.19 28.9492H112.407V27.9142L112.423 27.8975L112.42 27.9008ZM112.34 25.717H112.105C110.735 25.717 109.118 25.851 109.118 27.251C109.118 28.085 109.717 28.4032 110.454 28.4032C112.306 28.4032 112.34 26.7855 112.34 26.0989V25.7137V25.717Z" fill="#101019"/>
<path d="M118.747 23.2117H117.297V27.3515C117.297 27.9343 117.515 28.4032 118.148 28.4032C118.449 28.4032 118.647 28.3362 118.881 28.2525L118.931 28.9023C118.747 28.9693 118.349 29.0697 117.963 29.0697C116.56 29.0697 116.513 28.1018 116.513 26.9328V23.1949H115.26V22.5116H116.513V20.9776L117.297 20.6929V22.5116H118.747V23.2117Z" fill="#101019"/>
<path d="M121.916 20.8436H121.132V19.7919H121.916V20.8436ZM121.132 22.5451H121.916V28.9357H121.132V22.5451Z" fill="#101019"/>
<path d="M127.375 22.3944C129.445 22.3944 130.363 23.9954 130.363 25.7304C130.363 27.4654 129.445 29.0664 127.375 29.0664C125.305 29.0664 124.388 27.4654 124.388 25.7304C124.388 23.9954 125.305 22.3944 127.375 22.3944ZM127.375 28.4032C128.762 28.4032 129.496 27.2175 129.496 25.7337C129.496 24.25 128.762 23.0643 127.375 23.0643C125.989 23.0643 125.255 24.25 125.255 25.7337C125.255 27.2175 125.989 28.4032 127.375 28.4032Z" fill="#101019"/>
<path d="M132.815 24.0457C132.815 23.5633 132.815 23.0609 132.764 22.5451H133.531V23.6806H133.565C133.833 23.0978 134.298 22.3944 135.635 22.3944C137.219 22.3944 137.822 23.4461 137.822 24.8462V28.9358H137.038V25.0471C137.038 23.8447 136.619 23.0609 135.521 23.0609C134.087 23.0609 133.635 24.3304 133.635 25.3988V28.9358H132.851V24.0457H132.818H132.815Z" fill="#101019"/>
<path d="M144.728 28.0013C145.211 28.2357 145.78 28.4032 146.396 28.4032C147.147 28.4032 147.817 27.9845 147.817 27.2678C147.817 25.7505 144.745 25.9816 144.745 24.1294C144.745 22.86 145.78 22.3944 146.832 22.3944C147.167 22.3944 147.85 22.4614 148.416 22.6791L148.349 23.3624C147.93 23.1782 147.364 23.0609 146.929 23.0609C146.112 23.0609 145.542 23.3121 145.542 24.1294C145.542 25.3151 148.681 25.1643 148.681 27.2678C148.681 28.6209 147.411 29.0865 146.443 29.0865C145.827 29.0865 145.207 29.0195 144.658 28.785L144.725 28.0013H144.728Z" fill="#101019"/>
<path d="M156.046 27.4185C156.046 27.9008 156.046 28.4032 156.096 28.919H155.329V27.7836H155.296C155.028 28.3664 154.562 29.0697 153.226 29.0697C151.641 29.0697 151.039 28.018 151.039 26.618V22.5284H151.822V26.417C151.822 27.6194 152.258 28.4032 153.34 28.4032C154.773 28.4032 155.225 27.1338 155.225 26.0653V22.5284H156.009V27.4185H156.043H156.046Z" fill="#101019"/>
<path d="M159.784 20.8436H159V19.7919H159.784V20.8436ZM158.997 22.5451H159.78V28.9357H158.997V22.5451Z" fill="#101019"/>
<path d="M162.252 28.0013C162.735 28.2357 163.304 28.4032 163.92 28.4032C164.67 28.4032 165.34 27.9845 165.34 27.2678C165.34 25.7505 162.269 25.9816 162.269 24.1294C162.269 22.86 163.304 22.3944 164.356 22.3944C164.691 22.3944 165.374 22.4614 165.94 22.6791L165.873 23.3624C165.454 23.1782 164.888 23.0609 164.453 23.0609C163.636 23.0609 163.066 23.3121 163.066 24.1294C163.066 25.3151 166.204 25.1643 166.204 27.2678C166.204 28.6209 164.935 29.0865 163.967 29.0865C163.351 29.0865 162.731 29.0195 162.182 28.785L162.249 28.0013H162.252Z" fill="#101019"/>
<path d="M168.11 28.0013C168.593 28.2357 169.162 28.4032 169.778 28.4032C170.529 28.4032 171.199 27.9845 171.199 27.2678C171.199 25.7505 168.127 25.9816 168.127 24.1294C168.127 22.86 169.162 22.3944 170.214 22.3944C170.549 22.3944 171.232 22.4614 171.798 22.6791L171.731 23.3624C171.312 23.1782 170.746 23.0609 170.311 23.0609C169.494 23.0609 168.924 23.3121 168.924 24.1294C168.924 25.3151 172.063 25.1643 172.063 27.2678C172.063 28.6209 170.793 29.0865 169.825 29.0865C169.209 29.0865 168.589 29.0195 168.04 28.785L168.107 28.0013H168.11Z" fill="#101019"/>
<path d="M178.725 28.7181C178.175 28.9358 177.455 29.0698 176.873 29.0698C174.752 29.0698 173.969 27.6363 173.969 25.7338C173.969 23.8314 175.054 22.3978 176.655 22.3978C178.457 22.3978 179.19 23.8481 179.19 25.5697V25.9716H174.819C174.819 27.3248 175.553 28.4066 176.923 28.4066C177.506 28.4066 178.343 28.1722 178.708 27.9243V28.7248H178.725V28.7181ZM178.34 25.2816C178.34 24.163 177.887 23.061 176.705 23.061C175.523 23.061 174.819 24.2299 174.819 25.2816H178.34Z" fill="#101019"/>
<path d="M56.951 38.4312C56.4017 38.1465 55.6146 38.0461 54.9983 38.0461C52.7274 38.0461 51.4614 39.6471 51.4614 41.8175C51.4614 43.9879 52.6973 45.5889 54.9983 45.5889C55.5811 45.5889 56.4486 45.5219 56.951 45.2037L57.0012 45.954C56.5189 46.2387 55.551 46.3224 54.9983 46.3224C52.2451 46.3224 50.5939 44.5037 50.5939 41.8007C50.5939 39.0978 52.2954 37.2791 54.9983 37.2791C55.5141 37.2791 56.5491 37.3628 57.0012 37.614L56.951 38.4145V38.4312Z" fill="#101019"/>
<path d="M62.6751 39.6672C64.7451 39.6672 65.6628 41.2682 65.6628 43.0032C65.6628 44.7382 64.7451 46.3392 62.6751 46.3392C60.6052 46.3392 59.6875 44.7382 59.6875 43.0032C59.6875 41.2682 60.6052 39.6672 62.6751 39.6672ZM62.6751 45.676C64.0618 45.676 64.7953 44.4903 64.7953 43.0066C64.7953 41.5228 64.0618 40.3371 62.6751 40.3371C61.2885 40.3371 60.555 41.5228 60.555 43.0066C60.555 44.4903 61.2885 45.676 62.6751 45.676Z" fill="#101019"/>
<path d="M68.1313 41.3185C68.1313 40.8362 68.1313 40.3338 68.0811 39.818H68.8481V40.9534H68.8816C69.1495 40.3706 69.6151 39.6672 70.9515 39.6672C72.5357 39.6672 73.1386 40.7189 73.1386 42.119V46.2086H72.3549V42.3199C72.3549 41.1175 71.9362 40.3338 70.8376 40.3338C69.4041 40.3338 68.9519 41.6032 68.9519 42.6716V46.2086H68.1681V41.3185H68.1346H68.1313Z" fill="#101019"/>
<path d="M76.5918 40.4844H75.3057V39.8012H76.5918V39.3323C76.5918 37.9959 76.6421 36.6461 78.2766 36.6461C78.5278 36.6461 78.8594 36.6796 79.0101 36.78L78.9598 37.4633C78.7924 37.3796 78.5579 37.3293 78.3268 37.3293C77.2416 37.3293 77.3588 38.4983 77.3588 39.2653V39.8146H78.7924V40.4978H77.3588V46.2052H76.5751V40.4978L76.5918 40.4811V40.4844Z" fill="#101019"/>
<path d="M85.4877 46.0075C84.9384 46.2253 84.2183 46.3592 83.6355 46.3592C81.5153 46.3592 80.7316 44.9257 80.7316 43.0232C80.7316 41.1208 81.8168 39.6873 83.4178 39.6873C85.2197 39.6873 85.9533 41.1375 85.9533 42.8591V43.261H81.5823C81.5823 44.6142 82.3158 45.696 83.6857 45.696C84.2685 45.696 85.1059 45.4616 85.4709 45.2137V46.0142H85.4877V46.0075ZM85.1025 42.5711C85.1025 41.4524 84.6503 40.3504 83.468 40.3504C82.2857 40.3504 81.5823 41.5194 81.5823 42.5711H85.1025Z" fill="#101019"/>
<path d="M93.4962 46.2085H92.7124V45.1903H92.6789C92.2435 46.0076 91.5937 46.3593 90.6927 46.3593C88.941 46.3593 88.0568 44.909 88.0568 43.0233C88.0568 41.1376 88.807 39.6873 90.6927 39.6873C91.9454 39.6873 92.5784 40.605 92.6789 40.9232H92.7124V36.8336H93.4962V46.2286V46.2119V46.2085ZM90.81 45.676C92.2133 45.676 92.6957 44.1755 92.6957 43.0065C92.6957 41.8376 92.2133 40.3371 90.81 40.3371C89.3094 40.3371 88.9243 41.7706 88.9243 43.0065C88.9243 44.2425 89.3094 45.676 90.81 45.676Z" fill="#101019"/>
<path d="M100.657 46.0075C100.108 46.2253 99.3876 46.3592 98.8048 46.3592C96.6846 46.3592 95.9009 44.9257 95.9009 43.0232C95.9009 41.1208 96.9861 39.6873 98.5871 39.6873C100.389 39.6873 101.123 41.1375 101.123 42.8591V43.261H96.7516C96.7516 44.6142 97.4851 45.696 98.855 45.696C99.4378 45.696 100.275 45.4616 100.64 45.2137V46.0142H100.657V46.0075ZM100.272 42.5711C100.272 41.4524 99.8197 40.3504 98.6373 40.3504C97.455 40.3504 96.7516 41.5194 96.7516 42.5711H100.272Z" fill="#101019"/>
<path d="M103.611 41.2347C103.611 40.5347 103.611 40.2667 103.561 39.8012H104.345V41.0371H104.378C104.663 40.3203 105.212 39.6505 106.013 39.6505C106.197 39.6505 106.431 39.6839 106.562 39.7174V40.5514C106.395 40.5012 106.177 40.4844 105.979 40.4844C104.727 40.4844 104.395 41.8878 104.395 43.0367V46.1918H103.611V41.2347Z" fill="#101019"/>
<path d="M112.42 45.1736H112.387C112.035 45.9406 111.151 46.3593 110.35 46.3593C108.531 46.3593 108.247 45.1234 108.247 44.5573C108.247 42.4204 110.534 42.3199 112.186 42.3199H112.336V41.985C112.336 40.8998 111.951 40.3505 110.886 40.3505C110.219 40.3505 109.6 40.5012 109 40.883V40.116C109.483 39.8816 110.32 39.6806 110.886 39.6806C112.47 39.6806 113.123 40.3974 113.123 42.0654V44.8855C113.123 45.4013 113.123 45.7865 113.19 46.2219H112.407V45.187L112.423 45.1702L112.42 45.1736ZM112.34 42.9864H112.105C110.735 42.9864 109.118 43.1204 109.118 44.5205C109.118 45.3545 109.717 45.6727 110.454 45.6727C112.306 45.6727 112.34 44.0549 112.34 43.3683V42.9831V42.9864Z" fill="#101019"/>
<path d="M115.391 45.542L119.23 40.4844H115.542V39.8011H120.147V40.4844L116.309 45.5252H120.147V46.2085H115.391V45.542Z" fill="#101019"/>
<path d="M123.302 38.1164H122.519V37.0647H123.302V38.1164ZM122.519 39.8179H123.302V46.2085H122.519V39.8179Z" fill="#101019"/>
<path d="M128.759 39.6672C130.829 39.6672 131.746 41.2682 131.746 43.0032C131.746 44.7382 130.829 46.3392 128.759 46.3392C126.689 46.3392 125.771 44.7382 125.771 43.0032C125.771 41.2682 126.689 39.6672 128.759 39.6672ZM128.759 45.676C130.145 45.676 130.879 44.4903 130.879 43.0066C130.879 41.5228 130.145 40.3371 128.759 40.3371C127.372 40.3371 126.638 41.5228 126.638 43.0066C126.638 44.4903 127.372 45.676 128.759 45.676Z" fill="#101019"/>
<path d="M134.218 41.3185C134.218 40.8362 134.218 40.3338 134.168 39.818H134.935V40.9534H134.968C135.236 40.3706 135.702 39.6672 137.038 39.6672C138.623 39.6672 139.225 40.7189 139.225 42.119V46.2086H138.442V42.3199C138.442 41.1175 138.023 40.3338 136.924 40.3338C135.491 40.3338 135.039 41.6032 135.039 42.6716V46.2086H134.255V41.3185H134.221H134.218Z" fill="#101019"/>
<path d="M146.433 46.0075C145.884 46.2253 145.164 46.3592 144.581 46.3592C142.461 46.3592 141.677 44.9257 141.677 43.0232C141.677 41.1208 142.762 39.6873 144.363 39.6873C146.165 39.6873 146.899 41.1375 146.899 42.8591V43.261H142.528C142.528 44.6142 143.262 45.696 144.631 45.696C145.214 45.696 146.052 45.4616 146.417 45.2137V46.0142H146.433V46.0075ZM146.048 42.5711C146.048 41.4524 145.596 40.3504 144.414 40.3504C143.231 40.3504 142.528 41.5194 142.528 42.5711H146.048Z" fill="#101019"/>
<path d="M153.691 45.0898C154.207 45.4248 154.81 45.6056 155.627 45.6056C156.712 45.6056 157.597 45.0563 157.597 43.8204C157.597 42.1022 153.591 41.8845 153.591 39.5968C153.591 38.1934 154.827 37.3092 156.361 37.3092C156.779 37.3092 157.479 37.3762 158.079 37.5939L157.945 38.3777C157.56 38.1599 156.944 38.0427 156.361 38.0427C155.46 38.0427 154.475 38.4279 154.475 39.5432C154.475 41.295 158.481 41.3117 158.481 43.8639C158.481 45.6324 156.964 46.3324 155.61 46.3324C154.76 46.3324 154.093 46.165 153.624 45.964L153.708 45.0798H153.691V45.0898Z" fill="#101019"/>
<path d="M163.304 46.2086H162.353L160.182 39.8179H161.05L162.818 45.3411H162.852L164.704 39.8179H165.538L163.301 46.2086H163.304Z" fill="#101019"/>
<path d="M168.395 38.1164H167.611V37.0647H168.395V38.1164ZM167.608 39.8179H168.392V46.2085H167.608V39.8179Z" fill="#101019"/>
<path d="M170.763 45.542L174.602 40.4844H170.914V39.8011H175.519V40.4844L171.664 45.5252H175.519V46.2085H170.763V45.542Z" fill="#101019"/>
<path d="M177.305 45.542L181.143 40.4844H177.455V39.8011H182.061V40.4844L178.206 45.5252H182.061V46.2085H177.305V45.542Z" fill="#101019"/>
<path d="M188.702 46.0075C188.153 46.2253 187.433 46.3592 186.85 46.3592C184.73 46.3592 183.946 44.9257 183.946 43.0232C183.946 41.1208 185.031 39.6873 186.633 39.6873C188.434 39.6873 189.168 41.1375 189.168 42.8591V43.261H184.797C184.797 44.6142 185.531 45.696 186.9 45.696C187.483 45.696 188.321 45.4616 188.686 45.2137V46.0142H188.702V46.0075ZM188.321 42.5711C188.321 41.4524 187.868 40.3504 186.686 40.3504C185.504 40.3504 184.8 41.5194 184.8 42.5711H188.321Z" fill="#101019"/>
<path d="M191.657 41.2347C191.657 40.5347 191.657 40.2667 191.606 39.8012H192.39V41.0371H192.424C192.708 40.3203 193.258 39.6505 194.058 39.6505C194.242 39.6505 194.477 39.6839 194.607 39.7174V40.5514C194.44 40.5012 194.222 40.4844 194.025 40.4844C192.772 40.4844 192.44 41.8878 192.44 43.0367V46.1918H191.657V41.2347Z" fill="#101019"/>
<path d="M200.469 45.1736H200.435C200.084 45.9406 199.199 46.3593 198.399 46.3593C196.58 46.3593 196.296 45.1234 196.296 44.5573C196.296 42.4204 198.583 42.3199 200.234 42.3199H200.385V41.985C200.385 40.8998 200 40.3505 198.935 40.3505C198.268 40.3505 197.649 40.5012 197.049 40.883V40.116C197.531 39.8816 198.369 39.6806 198.935 39.6806C200.519 39.6806 201.172 40.3974 201.172 42.0654V44.8855C201.172 45.4013 201.172 45.7865 201.239 46.2219H200.455V45.187L200.472 45.1702L200.469 45.1736ZM200.385 42.9864H200.151C198.781 42.9864 197.163 43.1204 197.163 44.5205C197.163 45.3545 197.763 45.6727 198.499 45.6727C200.352 45.6727 200.385 44.0549 200.385 43.3683V42.9831V42.9864Z" fill="#101019"/>
<path d="M56.951 55.704C56.4017 55.4193 55.6146 55.3188 54.9983 55.3188C52.7274 55.3188 51.4614 56.9198 51.4614 59.0902C51.4614 61.2606 52.6973 62.8616 54.9983 62.8616C55.5811 62.8616 56.4486 62.7947 56.951 62.4765L57.0012 63.2267C56.5189 63.5114 55.551 63.5952 54.9983 63.5952C52.2451 63.5952 50.5939 61.7764 50.5939 59.0735C50.5939 56.3705 52.2954 54.5518 54.9983 54.5518C55.5141 54.5518 56.5491 54.6356 57.0012 54.8868L56.951 55.6873V55.704Z" fill="#101019"/>
<path d="M62.6751 56.9399C64.7451 56.9399 65.6628 58.5409 65.6628 60.2759C65.6628 62.0108 64.7451 63.6118 62.6751 63.6118C60.6052 63.6118 59.6875 62.0108 59.6875 60.2759C59.6875 58.5409 60.6052 56.9399 62.6751 56.9399ZM62.6751 62.9453C64.0618 62.9453 64.7953 61.7596 64.7953 60.2759C64.7953 58.7921 64.0618 57.6064 62.6751 57.6064C61.2885 57.6064 60.555 58.7921 60.555 60.2759C60.555 61.7596 61.2885 62.9453 62.6751 62.9453Z" fill="#101019"/>
<path d="M68.1313 58.5911C68.1313 58.1088 68.1313 57.6064 68.0811 57.0906H68.8481V58.226H68.8816C69.1495 57.6432 69.6151 56.9399 70.9515 56.9399C72.5357 56.9399 73.1386 57.9916 73.1386 59.3916V63.4812H72.3549V59.5926C72.3549 58.3902 71.9362 57.6064 70.8376 57.6064C69.4041 57.6064 68.9519 58.8758 68.9519 59.9443V63.4812H68.1681V58.5911H68.1346H68.1313Z" fill="#101019"/>
<path d="M76.5918 57.7572H75.3057V57.0739H76.5918V56.605C76.5918 55.2686 76.6421 53.9188 78.2766 53.9188C78.5278 53.9188 78.8594 53.9523 79.0101 54.0528L78.9598 54.7361C78.7924 54.6523 78.5579 54.6021 78.3268 54.6021C77.2416 54.6021 77.3588 55.771 77.3588 56.538V57.0873H78.7924V57.7706H77.3588V63.478H76.5751V57.7706L76.5918 57.7539V57.7572Z" fill="#101019"/>
<path d="M85.4877 63.2636C84.9384 63.4813 84.2183 63.6153 83.6355 63.6153C81.5153 63.6153 80.7316 62.1817 80.7316 60.2793C80.7316 58.3768 81.8168 56.9433 83.4178 56.9433C85.2197 56.9433 85.9533 58.3936 85.9533 60.1152V60.5171H81.5823C81.5823 61.8702 82.3158 62.9521 83.6857 62.9521C84.2685 62.9521 85.1059 62.7176 85.4709 62.4698V63.2703H85.4877V63.2636ZM85.1025 59.8271C85.1025 58.7084 84.6503 57.6065 83.468 57.6065C82.2857 57.6065 81.5823 58.7754 81.5823 59.8271H85.1025Z" fill="#101019"/>
<path d="M93.4962 63.4645H92.7124V62.4463H92.6789C92.2435 63.2636 91.5937 63.6152 90.6927 63.6152C88.941 63.6152 88.0568 62.165 88.0568 60.2793C88.0568 58.3936 88.807 56.9433 90.6927 56.9433C91.9454 56.9433 92.5784 57.861 92.6789 58.1792H92.7124V54.0896H93.4962V63.4846V63.4679V63.4645ZM90.81 62.9286C92.2133 62.9286 92.6957 61.4281 92.6957 60.2592C92.6957 59.0902 92.2133 57.5897 90.81 57.5897C89.3094 57.5897 88.9243 59.0232 88.9243 60.2592C88.9243 61.4951 89.3094 62.9286 90.81 62.9286Z" fill="#101019"/>
<path d="M100.657 63.2636C100.108 63.4813 99.3876 63.6153 98.8048 63.6153C96.6846 63.6153 95.9009 62.1817 95.9009 60.2793C95.9009 58.3768 96.9861 56.9433 98.5871 56.9433C100.389 56.9433 101.123 58.3936 101.123 60.1152V60.5171H96.7516C96.7516 61.8702 97.4851 62.9521 98.855 62.9521C99.4378 62.9521 100.275 62.7176 100.64 62.4698V63.2703H100.657V63.2636ZM100.272 59.8271C100.272 58.7084 99.8197 57.6065 98.6373 57.6065C97.455 57.6065 96.7516 58.7754 96.7516 59.8271H100.272Z" fill="#101019"/>
<path d="M103.611 58.5075C103.611 57.8075 103.611 57.5395 103.561 57.0739H104.345V58.3099H104.378C104.663 57.5931 105.212 56.9232 106.013 56.9232C106.197 56.9232 106.431 56.9567 106.562 56.9902V57.8242C106.395 57.774 106.177 57.7572 105.979 57.7572C104.727 57.7572 104.395 59.1606 104.395 60.3094V63.4646H103.611V58.5075Z" fill="#101019"/>
<path d="M112.42 62.4464H112.387C112.035 63.2134 111.151 63.632 110.35 63.632C108.531 63.632 108.247 62.3961 108.247 61.8301C108.247 59.6932 110.534 59.5927 112.186 59.5927H112.336V59.2577C112.336 58.1725 111.951 57.6232 110.886 57.6232C110.219 57.6232 109.6 57.774 109 58.1558V57.3888C109.483 57.1543 110.32 56.9534 110.886 56.9534C112.47 56.9534 113.123 57.6701 113.123 59.3381V62.1583C113.123 62.6741 113.123 63.0593 113.19 63.4947H112.407V62.4598L112.423 62.443L112.42 62.4464ZM112.34 60.2592H112.105C110.735 60.2592 109.118 60.3932 109.118 61.7932C109.118 62.6272 109.717 62.9454 110.454 62.9454C112.306 62.9454 112.34 61.3277 112.34 60.641V60.2559V60.2592Z" fill="#101019"/>
<path d="M115.391 62.8147L119.23 57.7571H115.542V57.0739H120.147V57.7571L116.309 62.7979H120.147V63.4812H115.391V62.8147Z" fill="#101019"/>
<path d="M123.302 55.3858H122.519V54.3341H123.302V55.3858ZM122.519 57.0906H123.302V63.4813H122.519V57.0906Z" fill="#101019"/>
<path d="M131.264 61.9607C131.264 62.443 131.264 62.9454 131.314 63.4612H130.547V62.3257H130.53C130.262 62.9085 129.797 63.6119 128.46 63.6119C126.876 63.6119 126.273 62.5602 126.273 61.1602V57.0706H127.057V60.9592C127.057 62.1616 127.492 62.9454 128.574 62.9454C130.008 62.9454 130.46 61.676 130.46 60.6075V57.0706H131.244V61.9607H131.261H131.264Z" fill="#101019"/>
<path d="M134.218 58.5911C134.218 58.1088 134.218 57.6064 134.168 57.0906H134.935V58.226H134.968C135.236 57.6432 135.702 56.9399 137.038 56.9399C138.623 56.9399 139.225 57.9916 139.225 59.3916V63.4812H138.442V59.5926C138.442 58.3902 138.023 57.6064 136.924 57.6064C135.491 57.6064 135.039 58.8758 135.039 59.9443V63.4812H134.255V58.5911H134.221H134.218Z" fill="#101019"/>
<path d="M146.115 62.5467C146.597 62.7812 147.167 62.9487 147.783 62.9487C148.533 62.9487 149.203 62.53 149.203 61.8132C149.203 60.296 146.132 60.5271 146.132 58.6749C146.132 57.4054 147.167 56.9399 148.219 56.9399C148.553 56.9399 149.237 57.0069 149.803 57.2246L149.736 57.9079C149.317 57.7236 148.751 57.6064 148.316 57.6064C147.498 57.6064 146.929 57.8576 146.929 58.6749C146.929 59.8605 150.067 59.7098 150.067 61.8132C150.067 63.1664 148.798 63.6319 147.83 63.6319C147.214 63.6319 146.594 63.565 146.045 63.3305L146.112 62.5467H146.115Z" fill="#101019"/>
<path d="M154.676 63.4645H153.725L151.555 57.0739H152.422L154.191 62.597H154.224L156.076 57.0739H156.91L154.673 63.4645H154.676Z" fill="#101019"/>
<path d="M159.767 55.3858H158.983V54.3341H159.767V55.3858ZM158.983 57.0906H159.767V63.4813H158.983V57.0906Z" fill="#101019"/>
<path d="M162.135 62.8147L165.973 57.7571H162.286V57.0739H166.891V57.7571L163.053 62.7979H166.891V63.4812H162.135V62.8147Z" fill="#101019"/>
<path d="M169.263 58.5075C169.263 57.8075 169.263 57.5395 169.212 57.0739H169.996V58.3099H170.013C170.298 57.5931 170.847 56.9232 171.647 56.9232C171.832 56.9232 172.066 56.9567 172.197 56.9902V57.8242C172.029 57.774 171.812 57.7572 171.614 57.7572C170.361 57.7572 170.03 59.1606 170.03 60.3094V63.4646H169.246V58.5075H169.263Z" fill="#101019"/>
<path d="M178.071 62.4464H178.055C177.703 63.2134 176.819 63.632 176.018 63.632C174.199 63.632 173.915 62.3961 173.915 61.8301C173.915 59.6932 176.202 59.5927 177.854 59.5927H178.004V59.2577C178.004 58.1725 177.619 57.6232 176.554 57.6232C175.887 57.6232 175.268 57.774 174.668 58.1558V57.3888C175.151 57.1543 175.988 56.9534 176.554 56.9534C178.138 56.9534 178.791 57.6701 178.791 59.3381V62.1583C178.791 62.6741 178.791 63.0593 178.858 63.4947H178.075V62.443L178.071 62.4464ZM178.021 60.2592H177.787C176.417 60.2592 174.799 60.3932 174.799 61.7932C174.799 62.6272 175.398 62.9454 176.135 62.9454C177.988 62.9454 178.021 61.3277 178.021 60.641V60.2559V60.2592Z" fill="#101019"/>
</g>
<defs>
<clipPath id="clip0_510_32965">
<rect width="262.4" height="64" fill="white"/>
</clipPath>
</defs>
</svg>
