<?xml version="1.0" encoding="UTF-8"?>
<svg id="Layer_2" data-name="Layer 2" xmlns="http://www.w3.org/2000/svg" viewBox="0 0 550 557.71">
  <defs>
    <style>
      .cls-1 {
        fill: #fefffe;
        fill-rule: evenodd;
      }
    </style>
  </defs>
  <g id="Layer_1-2" data-name="Layer 1">
    <g id="Laag_1">
      <path class="cls-1" d="M435.93,88.89c.62.73.74,1.05,1.76,1.53.85.4,1.51.52,2.3.06-.48-2.4-3.12-2.37-4.05-1.59ZM211,454.42c1.23,1.04,7.79,1.55,7.79.02,0-1.28-4.99-.77-5.68-.68-.79.11-1.38.03-2.11.66h0ZM439.98,90.82c.06.69,2.08,1.72,3.88,3.11.83.64,3.02,2.94,3.88,3.24.38-.82.48-.24-1.03-2.29-1.33-1.8-3.96-5.65-6.72-4.05h0ZM211.17,457.41c-1.37-1.37-5.81-2.97-7.4-3.47-5.23-1.65-11.26.35-3.88,1.11,2.11.22,5.34,1.08,7.4,1.77.8.27,1.16.36,1.94.57,1,.27,1.04.53,1.94.02h0ZM442.8,84.13c.45,1.61,4.8,4.47,5.81,5.03l3.7,1.9c.77.28.69.37,1.41-.24-3.22-3.22-5.33-5.02-9.51-6.65-.67-.26-.87-.3-1.41-.04h0ZM443.28,320.8c.89-.76.48-.3,1.27-1.22,2.02-2.39,5.48-9.19,2.97-11.82-.83.87-1.35,3.51-1.77,4.76-.76,2.29-2.5,5.83-2.69,6.52-.21.74-.21,1.07.23,1.76h0ZM316.98,34.45c-1.3-1.25-3.43-1.02-5.11-1.23-1.7-.22-3.48-.26-5.11.11-4.7,1.05-4.01,2.66-.18,2.16l4.41-.17c.05,0,.12.01.18.02l2.29.13c1.4.16,2.14.38,3.52-1.01h0ZM343.76,93.31c1.22,1.03,2.26.88,3.52,1.12,3.35.64,3.95.95,7.05,1.87,2.11.63,2.54,1.37,3.7.7-.87-2.47-8.08-5.05-12.33-4.65-.81.08-1.15.16-1.94.95h0ZM448.61,84.65c1.16,1.16,1.75,1.47,3,2.22.36.22,1.05.64,1.41.85.81.46.91.38,1.59.8l.35-.35c-1.16-1.9-.51-.7-1.76-1.76,1.25.09,2.11.84,3.35,1.59,2.51,1.52,2.56,1.87,3.52,1.06-4.01-4.01-4.18-4.58-9.34-5.47-.36-.06-3.57-.39-2.11,1.06h0ZM316.98,36.22c.66.66,1.06.83,1.76.97.58.11,1.13.15,1.76.24l3.52.29c1.77,0,5.56.46,7.05-.8-2.05-1.96-12.81-2.14-13.76-1.58-.37.22-.68.53-.34.88ZM472.76,76.37c.54,1.53,2.31,4.28,4.4,5.17.96.41.91.07,1.94.34,2.3.61,1.7,1.41,3.17,2.95,1.1-1.9-.89-4.05-2.06-5.23l-.06-.06c-.69-.69-4.26-2.61-5.46-3.11-.89-.38-1.14-.52-1.94-.06h0ZM432.41,59.99c-1.23-3.5-10.55-10.21-16.6-8.93-1.18.25-1.03.7,0,1.14,2.33,1,4.58-.68,14.49,6.95,1.83,1.41,1.55,1.11,2.11.84h0ZM104.95,241.91c-1.49,1.49-.88,11.81.53,13.22,1.12,1.12,1.41-1.97,1.48-2.64.36-3.46.58-3.58-.17-7.4-.24-1.21-.28-2.63-1.31-3.7l-.53.53h0ZM436.81,63.33c.54.87,1.35,3.88,3.52,4.31.1.02.55.06.7.06l3.35.37c2.69.84,4.05,2.41,5.46,1.6-1.93-1.93-8.11-6.21-11.28-6.87-.92-.19-.93-.27-1.76.53h0ZM431.65,346.53c2.52-2.52,7.58-14.11,8.93-17.98.49-1.4,2.29-4.75,1.47-6.17-1.35,1.35-8.12,17.65-9.55,20.97-1.04,2.42-1.39,2.25-.86,3.17h0ZM203.67,52.27c-.48.48-.4.57-.71,1.06,1.3,1.1,4.59-.51,5.99-1.05.68-.26,1.42-.47,2.11-.71l4.05-1.47c1.78-.63,2.99-1,4.23-2.23-1.03-.87-1.92-.55-2.82-.46-3.24.3-8.52.72-11.08,3.17-.7.67-.21.35-.78.9-.23.22-.57.37-1.01.81h0ZM113.24,212.13c-.66.66-1.76,2.75-1.98,3.52-.65,2.35-.63,8.95,1.09,10.75,1.16-1.21,1.15-4.55,1.97-7.75.4-1.55.74-2.33,1.33-3.88.32-.83.45-1.12.67-1.94.27-1,.33-1.16-.26-2.11-.88.17-1.95.54-2.82,1.41h0ZM266.58,33.05c1.32,1.32,5.55,2,7.4,2,.68,0,1.77-.2,2.47-.28,1.16-.13,9.56-.8,9.56-2.06,0-.96-6.18-1.16-7.09-1.15-.95.01-1.64-.19-2.47-.12-2.06.18-8.34.33-9.87,1.62ZM405.74,391.47l.53.53c.56-.35.61-.42,1.23-.85l1.23-.56c-2.27,2.27-4.92,5.47-6.35,7.76l.35.35c.92-.92,1.11-.66,1.89-1.57.57-.68.88-1.21,1.81-2.13,4.25-4.2,7.76-7.76,11.64-12.34-1.05-.64-.39-.15-.53-.53.54-.54,1.94-2.32,2.12-2.82-1.26-.59-1.66.89-3.35,2.24l-10.58,9.92h0ZM125.35,458.66c.94.94,1.55,1.12,2.47,1.41l7.4,3.06c.89.39,1.68.84,2.47,1.21,1.54.72,5.91,3.28,7.4,2.42-1.97-1.97-3.46-2.12-5.11-3.7,1.42-.28,1.86.73,3.35-.53-1.32-.82-2.83-1.13-4.41-1.52-2.04-.5-11.84-3.35-13.57-2.35h0ZM415.31,68.27c1.25,1.25,1.79,1.44,2.82,2.21,3.84,2.89,7.68,5.63,11.81,7.87.97.53,1.99,1.19,3,1.64.7.32,3.69,1.18,4.44,1.06,4.2-.69-10.47-8.49-11.14-8.82l-9.52-4.24c-.68-.2-.74-.29-1.41.27h0ZM470.46,98.4l-2.29-2.29c-2.75-2.75-3.93-6.22-7.22-6.87-.42,2.1,2.34,3.96,2.97,7.4.34,1.86-.47,1.8.9,3.17,1.18,1.18,7.6,3.35,10.22,4.43,1.13.46,2.49,1.06,3.52.85-.27-1.38-1.35-1.81-3.7-3.28-1.27-.8-3.09-2.1-4.4-3.42h0ZM191.33,45.93c.75.63.97.54,1.76.35l9.16-2.7c4.37-1.29,15.48-3.73,18.5-6.29-1.02-.86-1.46-.6-3.52-.3l-11.1,2.01c-3.39,1.03-11.78,3.92-14.8,6.94h0ZM245.54,456.17c-1.13.65-4.99.19-6.34-.07l-4.76-1.04c-.78-.17-1.01-.41-1.76.23.87,2.49,8.18,3.68,10.75,3.2,1.43-.26,2.33-.78,3.7-2.15,1.11.64,7.91,1,9.52,1.2l4.76.29c1.72-.01,3.98.28,4.93-.27-2.02-1.94-11.78-3.37-14.27-3.59-1.14-.1-8.71-.16-9.73.36-.4.2-.6-.24-.33.58.24.75,2.92,1.13,3.54,1.25h0ZM281.92,2.92c.87-.73,10.89-2.97,1.59-2.92-1.76,0-11.83.69-13.02,1.82-1.74,1.65,3.47,2.7,4.56,3.04-1.75,1.09-5.37,1.14-6.87,2.64-1.8,1.8,6.83,1.14,6.87,1.14,2.6.02,8.61-1.14,11.28-1.67,1.26-.25,2.55-.5,3.88-.94,1.49-.49,2.26-.65,3.7-.93,1.21-.24,2.76-.43,3.88-1.13-1.16-.98-2.61-.66-3.88-.5-1.38.18-2.64.01-4.05.08-.05,0-.12.01-.18.01-.05,0-.12,0-.18.01l-3.52-.04c-1.18,0-2.98.05-4.05-.62h0ZM454.43,76.02c1.33,1.33,7.91,3.83,10.04,4.42.9.25,2.5.76,3.35,1.57-1.35.84-5.65,1.05-4.41,2.29,1.54,1.54,4.32,1.81,7.22,3.21,5.96,2.86,10.08,7.21,13.72,12.65,1.32,1.97,2.06,3.97,3.9,5.81.67.67.01.12.7.35.2-1.03-.83-3.3-1.41-4.23l4.93.78c.82.08.82.12,1.59-.61-2.65-2.65-3.79-2.38-5.46-4.05-1.64-1.64.99-2.35-1.22-4.76-2-2.18-4.58-5.45-6.35-6.81-4.1-3.14-2.2.23-4.93-2.04-3.02-2.5-3.24-2.92-7.22-5.03-3.17-1.68-9.5-3.6-13.22-3.92-.92-.08-.41-.34-1.23.36h0ZM265.18,19.31c1.34,1.14,3.43.27,6.52.88-2.05,1.19-6.2.98-7.75,2.47,3.09,2.95,13-.76,18.86-1.32l9.34-.8c1.08-.15,2.03-.09,3.17-.09,2.2,0,4.14,0,6.34,0,4.31,0,8.4.4,12.69.84l6.17.68c16.94,2.43,21.72,3.98,37.89,8.01,1.25.31,5.19,1.79,6.34,1.12-.77-1.18-4.39-2.71-5.81-3.11-10.98-3.07-38.29-8.86-49.87-10.03-1.14-.11-2.02-.26-3.17-.39l-14.1-1.17c-3.34-.13-11.04,0-14.1.32-3.03.32-6.32.62-9.34,1.38-1.69.43-2.21.29-3.17,1.21h0ZM390.58,397.82c-15.51,15.51-25.31,22.26-42.48,31.98-2.64,1.5-5.43,2.8-7.93,4.06l-11.81,5.26c-1.45.56-2.61,1.08-4.05,1.59l-11.81,4.17c-1.4.47-2.71.78-4.05,1.23l-29.61,6.21c-.82.15-1.31.28-2.11.4l-11.81,1.64c-.41.06-1.64.15-1.94.39-2.09,1.61,8.72.81,8.99.79l7.93-.86c2.74-.41,5.16-.62,7.93-1.13l15.86-3.18c1.44-.3,2.48-.63,3.88-.99,6.43-1.61,9.83-2.86,15.86-4.87,1.36-.45,2.62-1,4.05-1.47,3.84-1.27,12.36-5.2,15.86-6.95,11.01-5.51,21.89-12.1,31.72-20.02,2.6-2.1,17.48-14.79,20.53-18.8.87-1.15,2.38-2.42,3.35-3.7,1.76-2.32,4.25-4.76,6.16-7.23l8.13-10.75c.93-1.25,1.82-2.63,2.89-3.7.29.63.26.29.05,1.23-.29,1.29-1.03,2.54-.05,3.7,1.86-1.86,2.41-4.41,3.13-6.34l2.79-6.52c1.41-3.13,3.43-5.62,5.16-9.69l1.43-3.35-.53-.53c-2.4,2.4-14.96,19.65-17.82,23.62-1.5,2.08-2.88,3.75-4.36,5.82-3.96,5.49-10.37,13-15.36,17.98h0ZM24.78,153.28c.26.55.14.15.13.7l-.66,2.29c-1.41,4.19-2.28,5.36-4.76,9.34-.26-1.3,1.58-7.2,2.97-9.16.71-1.02,1.56-2.37,2.32-3.17h0ZM62.88,87l11-11c.15-.12.3-.24.44-.34,2.52-1.92,8.73-8.14,10.93-8.91.18,1.2-.42,1.5-1.58,2.64-5.92,5.82-15.37,17.18-20.25,23.62-9.65,12.74-16.53,22.6-24.78,36.48-.63,1.05-10.89,18.29-9.45,20.8,1.62-1.62,3.2-3.08,4.19-4.76l2.46-4.58c3.46-6.4,7.32-12.45,11.23-18.68,5.12-8.16,11.38-15.78,17.17-23.44.6-.8,1.45-1.7,1.9-2.29.66-.87,1.15-1.58,1.83-2.29,1.57-1.65,2.52-3.18,4.06-4.76,2.96-3.05,5.31-6.36,8.29-9.34,1.02-1.02,1.04-1.36,1.92-2.29,10.5-11.15,17.5-18,29.97-25.94,9.21-5.86,18.62-10.47,28.02-16.12,5.82-3.5,4.84.03,9.34-1.09,2.36-.59,6.07-3.44,6.77-5.15.38-.91-.14-1.09.1-2.29.73-1.25,27.44-11.97,29.43-12.77,2.02-.81,3.79-1.48,5.82-2.15l5.82-2.07c1.04-.35,1.93-.56,3-.79,1.1-.24,1.87-.66,2.82.15-1.21,1.21-1.6,1.45-2.82,2.07-.83.42-1.69.96-2.64,1.42-4.77,2.3-12.11,4.92-15.86,8.67,2.43-.17,4.73-1.79,6.87-2.86,2.2-1.11,4.52-2.01,6.7-2.65,1.01-.3,2.39-.68,3.35-.84,1.07-.17,2.17-.23,3.35-.38l3.35-.22c1.18-.11,2.23-.29,3.35.78-2.09,2.09-7.53,2.97-10.4,3.93-5.36,1.79-13.3,5.71-15.16,11.75.91.87,1.12.71,2.11.51l5.82-1.79c1.22-.52,6.5-3.15,7.75-2.42-.52,1.4-6.81,3.25-7.4,4.94,1.33.77,4.3.16,5.82-.03l5.82-.42c1.52,0,2.68-.05,3.88,1.15-1.31,2.1-5.33,3.3-7.58,4.05l-15.86,5.18c-8.32,2.78-15.66,6.1-23.44,11.07-1.46.94-2.58,1.63-4.05,2.69-1.13.81-2.72,1.89-3.88,2.92-1.26,1.12-2.66,1.98-3.88,3.16-1.61,1.56-1.99,2.66-3.17,3.89l.53.53c.75-.47,1.69-.71,2.64-1.18.82-.41,1.7-.91,2.64-1.44,10.2-5.7,20.92-10.5,31.55-15.08,1.55-.67,3.74-1.19,5.11-2.04l.53.53c-2.29,2.19-5.78,2.97-8.11,4.94.21-.01.4-.02.7-.07.61-.1.04.02.71-.17,3-.86,6.1-1.65,8.99-2.77.96-.37,1.62-.67,2.64-1,.41-.13,2.22-.66,2.5-.67,4.21-.14-7.23,5.96-7.79,6.29l-10.22,6.04c-1.41.91-3.73,2.06-5.11,3.44l1.94-.58c5.54-2.55,11.13-4.64,16.74-6.93,3.18-1.3,4.35.9,7.4-.12,1.4-.47,2.37-.68,3.7-1.12l7.58-2.2c7.29-1.99,14.77-3.66,22.21-4.93.47-.08,8.39-.46,6.52,1.5-.96,1-15.31,3.12-18.51,4.14l-5.64,1.87c-5.78,2.32-11.35,4.88-16.74,8.18-4.19,2.56-7.37,4.91-11.1,8.64,1.01.2,1.69-.17,2.64-.58,1-.42,1.61-.66,2.64-1.13,5.88-2.71,11.82-5.55,17.98-7.69l10.22-3.64c2.45-.79,5.06-1.87,7.58-2.5,1.78-.45,3.44-.95,5.11-1.4,1.76-.47,3.28-.96,5.11-1.42l15.33-3.43c2.3-.46,14.68-2.34,15.33-2.72-1.18-.23-2.05.1-3.35.09l-9.87.53c-2.77.04-11.5,1.22-13.04-.09.96-.81,3.4-1.02,4.58-1.21l22.38-2.74c.84-.09,1.49-.15,2.29-.24l6.7-.86c2.59-.28,6.75-.81,8.99.73,3.17,2.17,6.05,1.69,9.69,1.97l.7.06c2.96.26,8.76.1,11.98.46l6.7.61c3.81.44,7.56.73,11.28,1.8l8.99,3.21c6.76,2.93,15.06,5.98,22.38,9.14l17.97,7.72c1.66.79,7.74,3.39,8.46,5.42-.91.77-1.17.34-2.29-.06-10.34-3.62-13.29-5.19-24.67-7.52-.82-.17-1.41-.22-2.29-.38-1.98-.36-4.69-1.03-6.52-.67,2.08,1.76,3.48,1.37,4.93,2.82-1.27.73-4.61-.15-6.52-.43-1.15-.17-2.02-.39-3.17-.55l-9.69-1.49-35.95-2.65c-2.6-.23-5.96.11-8.81.11l-16.21.91c-2.96.26-20.26,2.21-22.2,3.42l6.17-.1c.92-.02,1.15-.22,1.94.45-1.34,1.13-4.22,1.21-5.29,2.12,1.88.37,6.75-.93,8.99-1.38,5.49-1.1,8.12-1.16,13.22-1.8,1.47-.18,2.87-.18,4.41-.38l4.41-.24c4.48-.18,11.03-.36,15.51-.17l1.23.1c1.59.14,9-.06,9.63.82.96,1.33-3.11,1.45-3.48,2.52-.2.59.33.67,1.77.77,2.33.18,5.11-.57,6.52.63-1.33,1.27-3.77,1.63-5.29,2.01-3.17.8-12.17.13-15.68,3.1.88.84.84.62,1.76.64,3.88.1,3.14-.37,7.93.38,1.27.2,5.94,1.7,6.46,2.56,1.12,1.86-7.37.73-8.75.73-2.99,0-6.87.77-9.69,1.67-.8.25-.88.24-1.59.77-.76.57-.95.77-1.59.86-3.61.48-5.31-6.82-12.69-.79-2.75,2.25-2.92,1.48-6.52,1.19-4.41-.36-8.29.09-12.69.71l-6.34,1.23c-1.19.27-2.13.44-3.35.74-7.54,1.89-11.67,3.38-19.03,5.9-1.24.42-2.06.88-3.17-.18.66-.79.77-1.14,1.76-2.11.94-.92,1.04-1.07,1.59-1.94-1.32-.26-3.7,0-5.11.41-6.2,1.8-9.63,5.09-12.69,6.62-1.15.58-1.44.83-2.47-.15.57-.91.15-.82,1.06-1.76-1.64-.32-10.23,3.84-11.46,4.45-3.9,1.95-7.61,3.89-11.46,6.2-3.76,2.25-21.11,14.12-22.38,17.73,1.12.17,1.44-.48,2.64-1,2.06-.88,2-.35,2.64.29-.52.89.01.04-.37.88-1.6,3.55-12.51,14.85-16.61,19.92-1.07,1.32-1.99,2.22-3.06,3.52l-20.69,27.67c-1.03,1.44-.74,1.8-2.28,3.35-.59-1.02-.07-2.18.32-3.7,1.71-6.68,13.98-22.66,14.14-24.85-1.95,1.95-5.91,7.12-7.61,9.52-7.08,9.94-12.03,17.4-17.2,28.38-3.88,8.23-6.08,14.91-7.38,23.79-.36,2.5-.78,9.73-.14,11.81.36,1.16.62,1.05.59,2.29-1.64,1.02-2.25-.46-3.4,1.06-1.72,2.29.67,7.42.9,8.46.15.71.2.85-.5,1.59-3.03-1.06-4.5-5.47-5.08-7.75l-.98-4.23c-.22-1.09-.41-3.16-1.16-4.05-1.99,2.35-2.29,12.38-2.46,15.86l-.04,1.41c0,.29,0,.19,0,.53l.05,1.23c.38,5.76.32,8.78.97,15.16.12,1.17.23,2.15.37,3.35l.93,6.87c.2,1.23.24,2.13.42,3.35.18,1.23.42,2.14.72,3.35.15.61.37,1.23.45,1.76.14.82.19.8-.56,1.59-1.78-1.78-3.81-6.55-4.63-8.46-1.26-2.95-2.07-5.34-3.06-8.28-.5-1.48-.8-2.74-1.18-4.23l-.93-4.05c-.8-3.81-1.23-8.63-1.38-12.51-.15-3.89-.32-6.36.14-10.57.08-.74.03-1.19.12-1.94.49-3.88,2.14-12.89,1.42-16.57-.5.87-1.02,4.45-1.21,5.64-.92,5.89-2.18,1.55-2.67.71-1.63,1.93-4.06,20.49-4.51,23.79-.07.55-.14,2.26-.91,1.95-.79-.32-.52-5.38-.45-6.36l.11-1.23c.02-.24.02-.26.03-.53l.18-3.35c0-3.18.56-6.35.87-9.52l1.33-9.52c.55-3.19,1.19-6.28,1.83-9.52.36-1.82,2.21-7.64,1.87-9.34-3.34,3.34-7.96,13.86-9.53,17.98-1.66,4.36-3.19,8.92-3.44,13.57-.07,1.35-.71,3.25.27,4.41,1.5-1.5,2.33-4.28,3.7-4.76.29,1.44-.77,3.87-1.35,5.46-.99,2.72-2.16,5.51-2.9,8.28-.24.9-.61,1.75-.85,2.64-1.27,4.76-2.02,9.23-2.49,14.1l-.08,1.06c.21,9.67,3.86,8.54,3.53,11.63-.31,2.84-4.26,4.52-.13,10.93,3.25,5.04,5.66,10.4,6.97,16.21,1.95,8.61.61,5.18,3.51,13.57.28.82.74,1.91,1.35,2.64.63-3.18-1.61-9.59-1.45-12.72.21-4.14,4.06,5.64,4.22,6.02l5.62,12.51c1.8,4.15,3.82,8.72,6.09,12.69,3.24,5.64,3.47-7.04,5.93-1.61.87,1.92.93,5.76,1.78,8.47.3.95,1.05,3.19,1.59,4.05.52-.2-.13.18.22-.29.26-.34-.25.03.24-.33.7-.51.29-.2.69.23.59.63,1.08,1.45,1.52,2.15.94,1.49,1.67,2.73,2.49,4.23,3.9,7.07,5.48,13.19,6.34,20.97.14,1.24.03,2.74.04,4.05,0,.92,0,1.17-.12,2.11-.86,6.85-1.22,9.81-3.85,16.74-.3.79-.34,1.2-.85,2.11-2.36,4.22-.13,5.24-1.1,8.28-2,6.22-9.97,10.47-14.97,13.6-4.02,2.52-8.17,4.28-12.51,5.56-4.13,1.21-8.26,1.54-12.51,1.56-4.15.01-8.46-.76-12.51-1.91-2.42-.69-15.19-4.96-16.21-7.86.69-1.97,2.95-.71,4.41-1.94-2.96-2.96-8.39-4.01-11.1-5.15-6.17-2.61-11.8-6.42-16.56-11.22-6.09-6.14-9-14.06-11.69-22.03-1.8-5.34-3.16-10.86-4.31-16.39l-4.3-24.85c-.11-1.01-.21-1.8-.35-2.82l-.72-5.46c-.46-4.47-1.44-9.43.06-13.75,1.47-4.22,1.65-3.43.96-8.28l-2.01-16.56c-.23-1.82-.3-3.67-.53-5.46-.08-.63-.06-.75-.09-1.41l-.21-2.82c-.06-.56-.12-.59-.14-1.23-.06-1.72-.51-2.73-.76-4.23-.22-1.35-.03-2.71-.21-4.05-.25-1.88.1-3.75.09-5.64,0-1.12.11-1.59.17-2.64.22-3.65,0-7.25,0-10.93,0-.95-.07-1.89.02-2.82l.53-9.69c.05-.65.13-.71.16-1.41.28-7.52,2.42-20.27,4.17-27.49.24-.99.31-1.65.57-2.64.27-1.06.39-1.73.66-2.82l3.03-11.1c4.04-12.35,8.25-24.02,13.91-35.78.94-1.95,1.69-3.55,2.69-5.46,3.94-7.49,7.71-14.84,12.22-22.03,4.77-7.6,9.64-14.88,15.43-22.03,2.15-2.66,5.56-6.66,9.12-10.59h0ZM109.36,197.32c-.25-1.27.95-5.19,1.49-6.52.95-2.37,1.51-4.22,3.8-6.52.47,2.38-1.32,7.53-3.36,9.69-1.88,1.99-.64,1.83-1.93,3.35h0ZM92.45,138.82l3.35-3c.21,1.38-1.78,4.6-3,5.82-1.72,1.72-3.25,2.55-4.76,4.05-.19-1.24,3.58-6.04,4.41-6.87ZM142.5,147.97l.14-.55-.14.55ZM163.3,116.6c.68.65.63.75,1.41.49l4.76-3.14c-.3,1.33-2.61,3.18-3.34,4.41-.79,1.32-.11,1.24-.73,2.29-.26.44-1.37,1.22-2.09,1.94l-.35-.35c1.83-2.17,0-3.88.35-5.64h0ZM187.28,38c-.89-.89-.63-.95-1.41-1.76-1.28.25-1.23.01-2.64.87-.91.55-1.65,1.2-2.64,1.86-1.53,1.01-3.7,2.07-5.29,1.15,2.62-.92,4.45-1.7,6.7-3.53,2.89-2.36,3.5-.24,4.94-1.42.69-.57.56-.9,1.41-1.75-.08,1.12-.6,1.38-.94,2.29-.39,1.03.13,1.05-.12,2.29h0ZM213.53,76.59c3.92-3.92,8-6.32,11.98-7.64,1.07-.36,1.92-.73,3-.9,2.34-.37,7.01-.79,8.99.43-1.43,1.43-3.71,1.49-5.99,1.97-5.27,1.1-10.24,2.43-14.98,4.95-1.01.54-1.99,1.12-3,1.19h0ZM246.84,84.51c2.35-2.25,7.68-3.47,10.05-3-.89.75-3.84,1.87-4.93,2.24-1.54.52-3.68,1.04-5.11.76h0ZM254.95,70.06l-.53.18.53-.18ZM269.05,47.5h-.35s.35,0,.35,0ZM269.4,47.5h-.35s.35,0,.35,0ZM467.6,468.44l-.68.68c-.99.95-1.57,1.22-2.52,2.16-.94.92-1.86,1.94-2.82,2.85-.97.91-1.52,1.13-2.64,2.28-6.46,6.55-24.59,20.75-32.96,25.99l-11.1,7.25c-5.33,3.46-11.03,6.58-16.57,9.47l-10.93,5.3c-1.82.78-3.78.84-5.46,1.88,1,.15,8.46-.88,9.69-1.59l.53.53c-2.12,2.12-7.57,4.25-10.4,5.47-1.73.75-3.33,1.41-5.11,2.24-5.46,2.54-14.9,4.73-20.62,4.73-.84,0-1.83-.08-2.64.06-1.04.18-1.48.28-2.47,1.26l1.76,1.76c.96-.19,1.25-.27,2.29-.28,1.11,0,3.07.42,1.09,1.48l-3.91,1.55c-8.34,2.76-16.96,4.07-25.55,5.78-7.59,1.51-15.38,2.73-23.09,3.52l-17.8,1.43c-2.8.18-7.83-.47-10.22.27-.62,1.08.2,1.56-1.58,2.25-2.97,1.16-16.38,1.04-19.75.81-6.41-.44-3.02.14-7.04-2.5-2.35-1.54-7.21-1-9.88-1-10,0-20.05-1.64-29.78-3.85-4.15-.94-8.48-1.92-12.51-3.28l-7.4-2.47c-3.3-1.1-6.49-2.27-9.87-3.62-7.48-3-15.17-6.15-22.38-10.07l-7.4-3.8c-4.19-2.16-19.05-10.07-25.87-15.6l-2.99-2.99c-.17-.26-.3-.51-.38-.74,1.1-.22,1.85.34,3,1.04,6.69,4.05,13.41,7.73,20.26,11.26l3,1.5c1.08.56,1.76.79,2.82,1.31,6.82,3.36,15.95,7.58,23.08,9.91,17.45,5.72,13.32,5,28.9,7.2l8.63.83c1.61.15,1.22.21,2.82-.11-3.34-2.08-11.21-3.77-14.98-4.88-5.09-1.49-9.96-3.33-14.98-4.99-3.67-1.21-27.79-9.46-29.78-11.45.76-.64.62-.48,1.41-.38,3.25.41,6.52,1.48,9.69,2.26,3.74.92,7.36,1.89,11.1,2.95,3.77,1.07,7.41,2.13,11.1,3.12l11.1,2.69c3.77.74,7.33,1.53,11.1,2.29l27.84,5.11c1.24.18,4.38.9,5.46.28-1.99-1.9-11.29-3.89-14.27-6.87,1.71-1.45,8.95,1.02,11.28,1.14l26.43,1.23c.97,0,1.29-.02,2.29.11,2.27.29,11.24.22,13.22.47,2.61.34,9.78.13,12.51.38,1.16.11,4.23.33,5.11-.18-3-.59-5.74-.84-8.81-1.17-3.03-.32-5.83-.56-8.81-.9-.8-.09-1.48-.19-2.29-.27l-10.93-.95c-1.53-.16-2.84-.24-4.41-.43-3.71-.44-26.12-1.35-26.12-4.37,0-1.8,6.63-1.66,8.5-2.82-.82-.16-1.6-.12-2.47-.06-4.35.3-8.04.25-12.34-.29-8.2-1.03-16.63-1.89-24.67-3.89-3.05-.76-36.93-9.61-39.3-11.08,1.06-.9,2.03-.33,3.17-.15,5.54.9,9.87,2.07,14.98,3.07,7.22,1.42,20.39,4.85,26.96,5.58,1.04.12,1.99.33,3,.13-.82-.7-3.62-1.67-4.76-2.14l-23.79-8.38c-1.83-.77-34.11-11.74-26.11-10.7l19.06,5.36c-1.23-1.18-9.59-5.16-11.1-5.82l-27.49-11.87c-1.57-.67-4.08-1.57-5.46-2.74.76-.64.73-.52,1.59-.35,2.64.54,13.1,4.22,15.86,5.22,5.53,2.02,3.04,1.37,5.64.13,2.38-1.13,8.94,1.22,11.63,1.89,8.9,2.2,14.06,3.53,23.08,5.09l28.72,4c.97.11,1.83.25,2.82.31,1.03.06,1.85.28,2.82.09-2.17-1.35-16.37-4.27-19.91-5.04-7.55-1.65-8.6-1.65-16.21-4.41-6.36-2.31-12.7-5.57-18.15-9.86-1.46-1.15-2.28-1.11-2.82-2.88.92-.88,1.3-.88,2.29-.74.9.12,1.34.08,2.11.21,4.28.7,8.46,1.87,12.69,2.94l12.69,2.7c1.43.28,2.72.54,4.23.84l10.57,2.18c.81.15,1.37.35,2.11.5,4.02.81,18.78,3.98,21.15,3.52-3.3-2.06-10.96-3.72-15.33-5.11-7.85-2.49-15.87-4.42-23.79-6.74l-17.45-4.99c-3.63-1.21-7.2-2.21-10.75-3.68-.86-.36-1.46-.45-1.76-1.31,3.13-1.81,39.02,7.5,48.28,8.01,1.15.06,2.08.31,3.17.09-2.65-2.65-20.31-7.69-24.67-9.16-3.46-1.17-6.95-1.8-10.57-2.32-2.31-.33-4.71-.61-7.05-.59-3.13.04-7.44-2.15-3.17-2.3l5.29-.17c.85,0,1.01.17,1.76-.27-3.13-.96-6.38-1.47-9.52-2.46-.69-.22-4.79-1.07-3.99-2.21.43-.62,3.81-.35,4.7-.35,1.06,0,1.43.02,2.47.14.85.09,1.42,0,2.29.12,7.93,1.08,18.93,3.4,26.26,5.59,7.91,2.35,13.01,3.49,21.32,4.18,1.61.13,3.17.24,4.76-.07-2.62-2.62-10.07-2.91-11.28-6.34,1.88-1.09,6.58,1.08,8.63,1.52,7.13,1.52,14.25,2.87,21.5,3.74l4.23.3c.98.09,1.27.17,2.29.16.79,0,1.32,0,2.11,0,.94,0,1.24-.12,2.11-.18.73-.05,1.36,0,2.11,0l8.46-.35c3.15,0,9.75-.77,12.86-1.15,7.18-.88,14.23-2.16,21.32-3.57,8.72-1.73,17.29-4.5,25.73-7.31l8.46-3.2c11.95-4.9,23.36-10.89,34.19-18.1l12.87-9.17c3.03-2.35,5.84-4.5,8.64-7.13l10.58-9.51,17.48-19.22c4.8-5.61,9.36-11.45,12.77-17.1,1.68-2.79,3.44-5.69,5.06-8.64,4.63-8.43,8.93-16.84,13.03-25.55,2.04-4.33,3.56-8.54,5.38-12.87.3-.71.48-1.4.76-2.11l3.07-8.64c.24-.78.4-1.41.62-2.11,3.09-9.83,5.45-19.79,6.96-29.96l.91-8.46c.08-.92.14-1.17.15-2.11l.36-14.98c.03-4.3-.31-7.35-3.43-10.75-2.72-2.96-2.93-6.93-3.52-10.57-.24-1.49-.6-2.86-.95-4.41-1.63-7.17-3.46-14.49-6.3-21.32-6.47-15.59-7.87-18.84-18.08-34.18-1.71-2.58-7.64-10.13-10.43-12.86-2.62-2.56-5.09-6.03-8.11-8.25l-4.23-3.73c-5.66-5.14-11.34-9.21-17.09-13.07-2.92-1.96-5.85-3.74-8.63-5.33-4.3-2.45-8.39-4.79-12.86-6.93-13.02-6.23-28.92-12.55-42.64-15.92l-12.86-3.3c-2.19-.54-4.28-.89-6.36-1.86-1.51-.7-.8-.49-1.39-1.51-1.22-.24-2.56-.32-3.88-.46l-5.64-.6c-.72-.09-1.03-.04-1.76-.1l-3.7-.27c-.79-.1-1.18-.05-1.94-.05-.83,0-.98-.1-1.76-.17h-11.1c-.81.04-1.07.17-1.94.17-3.06.01-6.11.4-9.16.74-3.08.35-8.62,1.61-10.93,1.65-2.63.05-1.9-1.09,0-1.91,1.17-.5,2.57-.67,3.7-1.63-2.26-.45-7.46,1.22-9.69,1.79-1.69.43-3.14.9-4.76,1.37-1.6.46-3.06.92-4.76,1.49-1.69.56-3.07,1.02-4.76,1.59-6.53,2.18-12.83,4.82-19.21,7.55-7.07,3.02-17.2,8.11-23.79,11.76-1.46.81-7.7,4.78-9.52,3.73-.16-1.04.68-1.66,1.39-2.22,8.61-6.72,16.49-11.33,26.28-16.25,3.07-1.54,6.32-2.9,9.52-4.18,12.89-5.17,25.34-8.09,38.24-9.64.91-.11,1.56-.17,2.47-.26.93-.1,1.63-.13,2.47-.24,1.59-.21,3.1-.14,4.76-.28,2.28-.2,9.17-.44,11.45-.23l22.03,1.19c6.14.75,9.8.96,16.74,2.14l7.05,1.39c2.48.62,7.7,2.96,9.16,5.31-.52.44-.56.4-1.06.71l9.69,2.31c3.27.89,6.36,1.66,9.69,2.75l19.21,6.6c3.33,1.37,6.39,2.61,9.69,4.16,7.42,3.48,12.23,6.37,19.21,10.88,1.72,1.11,7.84,5.46,9.52,5.2-.69-.73-1.74-2.25-2.34-3-1.38-1.72-7.27-7.2-8.76-8.36-3.84-2.98-7.84-5.47-11.81-7.64-3.85-2.1-7.82-3.99-11.81-5.7-3.37-1.45-9.6-3.68-10.4-7.73,1.18-1.18,1.47-1.28,2.64-1.58.77-.2,1.65-.32,2.47-.41,12.07-1.31-2.53-6.56-5.99-7.82l-22.03-6.99c-.98-.31-1.19-.25-2.11-1.18.52-.3.56-.28,1.59-.09.62.11.97.24,1.59.38,1.11.24,2.06.46,3.17.71,5.36,1.21,13.88,3.63,19.03,5.02,3.06.82,24.44,7.88,25.37,7.73-.71-.6-3.01-1.43-3.88-1.76-2.52-.95-9.98-3.31-10.38-6.17-.45-3.21,5.19-2.67,6.51-2.88,6.3-1.03-10.77-6.85-11.46-7.1-6.3-2.31-12.52-4.7-18.68-7.38-1.33-.58-2.46-.95-3.7-2.19,1.21-1.03,3.37-.21,4.76.11l13.75,3.44c3.14.8,6.06,1.58,9.16,2.49,4.81,1.41,4.53.45,8.11.87,4.18.49,6.38,1.52,10.22,2.91,3.02,1.09,2.32-1.1,4.58-1.75,1.7-.49,2.97,1.2,4.58,2.08,4.02,2.18,4.52-1.95,9.16,1.71l9.16,8.4c.22-1.46-1.46-1.39-.53-3,1.69.59,8.8,7.83,10.73,10.06,2.32,2.68,1.68,1.43,3.19,1.76,1.92.42,8.71,7.4,10.75,9.67.73.82.58.9,1.4,1.76.56.6,1.21,1.12,1.72,1.76,1.78,2.23,4.27,5.02,6.22,7.22,4.02,4.55,7.8,9.52,11.2,14.27,1.73,2.41,3.37,4.86,4.93,7.05,3.19,4.49,6.34,9.5,8.93,14.27.7,1.29,1.35,2.37,2.1,3.7.71,1.28,1.25,2.35,1.91,3.52,1.28,2.25,2.43,4.79,3.57,7.05,2.36,4.71,4.36,9.47,6.32,14.27,3.8,9.3,6.81,18.69,9.2,28.37,2.01,8.16,3.17,15.1,4.66,23.26.64,3.54.85,7.17,1.29,10.75l.77,8.81c.21,6.29,1.01,17.88.45,24.14,0,.07-.03.28-.03.35l-.51,11.28c-.1.73-.04,1.02-.11,1.76-.31,3.72-2.02,17.54-1.66,19.39,2.12-3.4,3.09-7.32,4.16-11.1,3.39-11.98,5.47-24.27,6.37-36.66l.44-11.81c0-.05,0-.12-.01-.18l-.08-1.59c-.02-.3-.03-.39-.03-.7l-.88-15.16c-.8-7.99-2.97-20.06-5.48-27.49-.38-1.12-.47-1.74-.82-2.82-.32-.99-.56-1.65-.88-2.64-.21-.64-3.6-8.14-2.26-8.14,1.17,0,5.31,9.06,5.92,10.61,2.52,6.36,5.16,12.73,7.32,19.21,2.12,6.36,4.51,12.84,5.85,19.38l1.63,5.46c.37.94.59,1.87,1.33,2.64.24-1.19.01-2.58-.15-3.88-.09-.76-.17-1.19-.28-1.94l-.63-5.82c-.15-1.13-.42-2.58.53-3.7,1.64,1.93,4.09,16.75,5.28,18.68.2-1.03.08-1.77-.05-2.82-.12-.98-.16-1.85-.25-2.82-.42-4.17-2.52-11.86-3.37-16.56-.36-2.01-.55-5.74,1.26-1.41,1.9,4.51,5.15,14.65,6.03,19.21.2,1.03.43,1.76.64,2.82,1.36,6.87,2.3,13.67,2.88,20.62.05.65.14.72.16,1.41l.16,13.75c0,.96.02,1.68,0,2.64l-.14,2.11c-.31,3.95-.48,7.88-1.01,11.81l-2.3,13.92c-.36,1.79-.58,3.66-.88,5.46-.94,5.53-2.22,11.08-3.46,16.57-1.53,6.76-5.74,21.61-8.23,27.49-.75,1.77-1.33,3.61-2.01,5.46l-4.59,11.1c-2.39,5.61-5.3,11.13-8.02,16.57-.98,1.96-2.03,3.7-3.11,5.64-6.37,11.44-13.66,22.62-21.91,32.96-8.27,10.37-17.02,20.09-26.74,29.94h0ZM250.47,471.68c-2.13,1.8-14.24,3.57-18.15-.17.78-.45,7.46.45,8.99.44l9.16-.27h0ZM251.35,485.95c.76-.44,2.93-.33,3.88-.2,1.4.18,2.5.17,3.88.12l3.88-.18c1.32-.01,2.83-.15,4.05.09-1.89,1.89-5.25,3.38-7.75,3.27-.49-.02-.44-.06-.88-.11-.5-.06-.63-.04-1.06-.1-1.77-.26-4.6-1.48-5.99-2.87h0ZM251,471.5l-.53.18.53-.18ZM270.91,486.48c.99-.31,2-.4,3-.54.63-.09.96-.05,1.59-.12.69-.07.83-.14,1.59-.14,1.81-.01,4.62.09,6.34.62-2.76,1.72-10.2,1.52-12.51.18ZM476.42,266.51c-1.06-3.44-.26-10.32-.26-14.27,0-.79-.05-1.51.02-2.29l.25-2.47c.44.76,1.38,10.51,1.32,11.81-.03.76-.23,1.67-.35,2.47-.16,1.15-.44,3.83-.98,4.76h0ZM486.13,189.5c.96.96,2.11,2.74,2.72,3.7.86,1.36,1.61,2.58,2.39,3.88,4.01,6.69,7.79,15.21,9.27,22.73,2.13,10.81,1.12,16.23-1.1,26.61-.28,1.3-.44,2.65-1.48,3.88l-1.5-11.28c-.12-7.01-2.37-19.51-4.15-26.61l-4.04-15.15c-.42-1.59-2.28-6.57-2.1-7.75h0ZM397.33,96.12l-.53-.18.53.18ZM397.33,96.12l.55.14-.55-.14ZM482.26,181.39c-.73-.76-2.69-5.55-3.45-7.22-1.86-4.08-5.75-11.24-9.06-14.46-2.95-2.87-8.63-2.15-11.03-12.14-.31-1.27-.84-2.47-1.29-3.7-.45-1.22-.85-2.37-1.39-3.7-1.47-3.61-3.47-7.49-5.49-10.93-.55-.93-1.5-2.6-1.58-3.7,2.71,2.29,3.86,3.37,6.26,6.52,1.7,2.22,3.48,4.01,5.74,7.05,8.36,11.26,14.74,22.46,20.04,35.24.74,1.79,1.58,5.43,1.26,7.05h0Z"/>
    </g>
  </g>
</svg>