<?xml version="1.0" encoding="UTF-8"?>
<svg id="Layer_2" data-name="Layer 2" xmlns="http://www.w3.org/2000/svg" viewBox="0 0 724.61 141.36">
  <defs>
    <style>
      .cls-1, .cls-2 {
        fill: #2e2e47;
      }

      .cls-2 {
        fill-rule: evenodd;
      }

      .cls-3 {
        fill: #00b2a9;
      }
    </style>
  </defs>
  <g id="Layer_1-2" data-name="Layer 1">
    <g>
      <g>
        <path class="cls-3" d="M39.52,105.69c-12.38,0-22.07-3.45-29.05-10.35C3.49,88.44,0,78.59,0,65.79V16.92h20.2v48.12c0,8.31,1.7,14.3,5.11,17.95,3.41,3.66,8.19,5.49,14.34,5.49s10.93-1.83,14.34-5.49c3.41-3.66,5.11-9.64,5.11-17.95V16.92h19.95v48.87c0,12.8-3.49,22.65-10.47,29.55-6.98,6.9-16.66,10.35-29.05,10.35Z"/>
        <path class="cls-3" d="M128.03,36.12v17.95c-.83-.08-1.58-.14-2.24-.19-.67-.04-1.37-.06-2.12-.06-5.32,0-9.62,1.52-12.91,4.55-3.28,3.04-4.92,7.75-4.92,14.15v31.66h-19.45V37.12h18.58v8.81c1.83-2.51,4.16-4.56,6.98-6.13,4.4-2.45,9.77-3.68,16.08-3.68Z"/>
        <path class="cls-3" d="M203.27,52.33c-2.95-5.15-6.94-9.14-11.97-11.97-5.03-2.82-10.7-4.24-17.01-4.24-5.65,0-10.6,1.25-14.84,3.74-1.99,1.17-3.78,2.63-5.36,4.37V11.69h-19.45v92.5h18.58v-7.76c1.68,2.04,3.63,3.71,5.86,5.02,4.24,2.5,9.31,3.74,15.21,3.74,6.31,0,11.98-1.43,17.01-4.3,5.03-2.87,9.02-6.88,11.97-12.03,2.95-5.15,4.42-11.22,4.42-18.2s-1.48-13.17-4.42-18.33ZM185.69,80.57c-1.54,2.79-3.57,4.92-6.11,6.42-2.54,1.49-5.43,2.24-8.66,2.24s-6.15-.75-8.73-2.24c-2.58-1.5-4.61-3.64-6.11-6.42-1.49-2.79-2.24-6.09-2.24-9.91s.75-7.23,2.24-9.97c1.5-2.74,3.53-4.86,6.11-6.36,2.58-1.5,5.49-2.24,8.73-2.24s6.13.75,8.66,2.24c2.53,1.49,4.57,3.61,6.11,6.36,1.54,2.74,2.31,6.07,2.31,9.97s-.77,7.13-2.31,9.91Z"/>
        <path class="cls-3" d="M270.4,43.35c-5.65-4.82-13.59-7.23-23.81-7.23-5.32,0-10.55.71-15.71,2.12-5.15,1.42-9.56,3.41-13.21,5.99l6.98,13.59c2.41-1.91,5.34-3.43,8.79-4.55,3.45-1.12,6.96-1.68,10.53-1.68,5.24,0,9.12,1.16,11.66,3.49,2.53,2.33,3.8,5.57,3.8,9.72h-15.46c-6.81,0-12.34.85-16.58,2.56-4.24,1.71-7.34,4.05-9.29,7.04-1.95,2.99-2.93,6.48-2.93,10.47s1,7.27,2.99,10.35c1.99,3.08,4.86,5.51,8.6,7.29,3.74,1.78,8.23,2.68,13.46,2.68,5.9,0,10.72-1.12,14.46-3.37,2.53-1.51,4.52-3.5,5.99-5.97v8.34h18.2v-38.27c0-10.22-2.82-17.74-8.48-22.56ZM253.82,89.79c-2.58,1.54-5.49,2.31-8.73,2.31-3.41,0-6.09-.73-8.04-2.18-1.95-1.45-2.93-3.43-2.93-5.92,0-2.24.85-4.11,2.56-5.61,1.7-1.49,4.84-2.24,9.41-2.24h13.34v6.86c-1.16,2.99-3.04,5.26-5.61,6.79Z"/>
        <path class="cls-3" d="M355.05,65.79v38.4h-19.45v-35.41c0-5.4-1.19-9.39-3.55-11.97-2.37-2.57-5.72-3.87-10.04-3.87-3.07,0-5.84.64-8.29,1.93-2.45,1.29-4.36,3.26-5.73,5.92-1.37,2.66-2.06,6.07-2.06,10.22v33.16h-19.45V37.12h18.58v7.97c1.92-2.15,4.21-3.93,6.86-5.36,4.49-2.41,9.6-3.62,15.33-3.62,5.32,0,10.08,1.06,14.27,3.18,4.19,2.12,7.5,5.36,9.91,9.72,2.41,4.36,3.61,9.95,3.61,16.77Z"/>
      </g>
      <g>
        <g id="Laag_1">
          <path class="cls-2" d="M695.7,22.53c.16.18.19.27.45.39.21.1.38.13.58.02-.12-.61-.79-.6-1.03-.4ZM638.69,115.17c.31.26,1.98.39,1.98,0,0-.32-1.27-.19-1.44-.17-.2.03-.35,0-.54.17h0ZM696.73,23.02c.02.17.53.44.98.79.21.16.77.74.98.82.1-.21.12-.06-.26-.58-.34-.46-1-1.43-1.7-1.03h0ZM638.73,115.93c-.35-.35-1.47-.75-1.88-.88-1.33-.42-2.85.09-.98.28.54.05,1.35.27,1.88.45.2.07.29.09.49.14.25.07.26.14.49,0h0ZM697.44,21.32c.11.41,1.22,1.13,1.47,1.28l.94.48c.19.07.18.09.36-.06-.82-.82-1.35-1.27-2.41-1.69-.17-.07-.22-.08-.36-.01h0ZM697.56,81.31c.23-.19.12-.07.32-.31.51-.6,1.39-2.33.75-3-.21.22-.34.89-.45,1.21-.19.58-.63,1.48-.68,1.65-.05.19-.05.27.06.45h0ZM665.55,8.73c-.33-.32-.87-.26-1.3-.31-.43-.06-.88-.07-1.3.03-1.19.27-1.02.68-.04.55l1.12-.04s.03,0,.04,0l.58.03c.35.04.54.1.89-.26h0ZM672.34,23.65c.31.26.57.22.89.28.85.16,1,.24,1.79.47.53.16.64.35.94.18-.22-.63-2.05-1.28-3.13-1.18-.21.02-.29.04-.49.24h0ZM698.91,21.46c.29.29.44.37.76.56.09.05.27.16.36.22.2.12.23.1.4.2l.09-.09c-.29-.48-.13-.18-.45-.45.32.02.54.21.85.4.64.38.65.47.89.27-1.02-1.02-1.06-1.16-2.37-1.39-.09-.02-.9-.1-.54.27h0ZM665.55,9.18c.17.17.27.21.45.25.15.03.29.04.45.06l.89.07c.45,0,1.41.12,1.79-.2-.52-.5-3.25-.54-3.49-.4-.09.06-.17.13-.09.22ZM705.03,19.36c.14.39.59,1.08,1.12,1.31.24.1.23.02.49.09.58.15.43.36.8.75.28-.48-.22-1.03-.52-1.33h-.01c-.17-.19-1.08-.68-1.38-.8-.23-.1-.29-.13-.49-.01h0ZM694.81,15.2c-.31-.89-2.67-2.59-4.21-2.26-.3.06-.26.18,0,.29.59.25,1.16-.17,3.67,1.76.46.36.39.28.54.21h0ZM611.81,61.31c-.38.38-.22,2.99.13,3.35.28.28.36-.5.38-.67.09-.88.15-.91-.04-1.88-.06-.31-.07-.67-.33-.94l-.13.13h0ZM695.92,16.05c.14.22.34.98.89,1.09.03,0,.14.01.18.02l.85.1c.68.21,1.03.61,1.38.4-.49-.49-2.06-1.57-2.86-1.74-.23-.05-.24-.07-.45.13h0ZM694.61,87.83c.64-.64,1.92-3.58,2.26-4.56.12-.35.58-1.2.37-1.56-.34.34-2.06,4.47-2.42,5.32-.26.61-.35.57-.22.8h0ZM636.83,13.25c-.12.12-.1.14-.18.27.33.28,1.16-.13,1.52-.27.17-.07.36-.12.54-.18l1.03-.37c.45-.16.76-.25,1.07-.57-.26-.22-.49-.14-.71-.12-.82.08-2.16.18-2.81.8-.18.17-.05.09-.2.23-.06.06-.15.09-.25.2h0ZM613.91,53.76c-.17.17-.45.7-.5.89-.16.6-.16,2.27.28,2.72.29-.31.29-1.15.5-1.97.1-.39.19-.59.34-.98.08-.21.11-.28.17-.49.07-.25.08-.29-.07-.54-.22.04-.49.14-.71.36h0ZM652.78,8.38c.33.33,1.41.51,1.88.51.17,0,.45-.05.63-.07.29-.03,2.42-.2,2.42-.52,0-.24-1.57-.3-1.8-.29-.24,0-.42-.05-.63-.03-.52.05-2.12.08-2.5.41ZM688.05,99.22l.13.13c.14-.09.16-.11.31-.22l.31-.14c-.57.57-1.25,1.39-1.61,1.97l.09.09c.23-.23.28-.17.48-.4.15-.17.22-.31.46-.54,1.08-1.06,1.97-1.97,2.95-3.13-.27-.16-.1-.04-.13-.13.14-.14.49-.59.54-.71-.32-.15-.42.23-.85.57l-2.68,2.51h0ZM616.98,116.25c.24.24.39.28.63.36l1.88.78c.23.1.43.21.63.31.39.18,1.5.83,1.88.61-.5-.5-.88-.54-1.3-.94.36-.07.47.18.85-.13-.33-.21-.72-.29-1.12-.39-.52-.13-3-.85-3.44-.6h0ZM690.47,17.3c.32.32.45.36.71.56.97.73,1.95,1.43,2.99,2,.25.13.51.3.76.42.18.08.94.3,1.13.27,1.06-.17-2.65-2.15-2.82-2.24l-2.41-1.07c-.17-.05-.19-.07-.36.07h0ZM704.45,24.94l-.58-.58c-.7-.7-1-1.58-1.83-1.74-.11.53.59,1,.75,1.88.09.47-.12.46.23.8.3.3,1.93.85,2.59,1.12.29.12.63.27.89.22-.07-.35-.34-.46-.94-.83-.32-.2-.78-.53-1.12-.87h0ZM633.7,11.64c.19.16.25.14.45.09l2.32-.68c1.11-.33,3.92-.95,4.69-1.59-.26-.22-.37-.15-.89-.08l-2.81.51c-.86.26-2.99.99-3.75,1.76h0ZM647.44,115.62c-.29.17-1.27.05-1.61-.02l-1.21-.26c-.2-.04-.26-.1-.45.06.22.63,2.07.93,2.72.81.36-.07.59-.2.94-.54.28.16,2,.25,2.41.31l1.21.07c.44,0,1.01.07,1.25-.07-.51-.49-2.99-.86-3.62-.91-.29-.03-2.21-.04-2.47.09-.1.05-.15-.06-.08.15.06.19.74.29.9.32h0ZM656.66.74c.22-.19,2.76-.75.4-.74-.45,0-3,.17-3.3.46-.44.42.88.69,1.16.77-.44.28-1.36.29-1.74.67-.46.46,1.73.29,1.74.29.66,0,2.18-.29,2.86-.42.32-.06.65-.13.98-.24.38-.13.57-.16.94-.24.31-.06.7-.11.98-.29-.29-.25-.66-.17-.98-.13-.35.05-.67,0-1.03.02-.01,0-.03,0-.04,0-.01,0-.03,0-.04,0h-.89c-.3-.01-.75,0-1.03-.17h0ZM700.39,19.27c.34.34,2.01.97,2.55,1.12.23.06.63.19.85.4-.34.21-1.43.27-1.12.58.39.39,1.1.46,1.83.81,1.51.73,2.55,1.83,3.48,3.21.33.5.52,1.01.99,1.47.17.17,0,.03.18.09.05-.26-.21-.84-.36-1.07l1.25.2c.21.02.21.03.4-.15-.67-.67-.96-.6-1.38-1.03s.25-.59-.31-1.21c-.51-.55-1.16-1.38-1.61-1.72-1.04-.8-.56.06-1.25-.52-.77-.63-.82-.74-1.83-1.28-.8-.43-2.41-.91-3.35-.99-.23-.02-.1-.09-.31.09h0ZM652.42,4.89c.34.29.87.07,1.65.22-.52.3-1.57.25-1.97.63.78.75,3.29-.19,4.78-.33l2.37-.2c.27-.04.51-.02.8-.02.56,0,1.05,0,1.61,0,1.09,0,2.13.1,3.22.21l1.56.17c4.29.61,5.5,1.01,9.6,2.03.32.08,1.31.45,1.61.28-.19-.3-1.11-.69-1.47-.79-2.78-.78-9.71-2.25-12.64-2.54-.29-.03-.51-.07-.8-.1l-3.57-.3c-.85-.03-2.8,0-3.57.08-.77.08-1.6.16-2.37.35-.43.11-.56.07-.8.31h0ZM684.2,100.83c-3.93,3.93-6.41,5.64-10.77,8.11-.67.38-1.38.71-2.01,1.03l-2.99,1.33c-.37.14-.66.27-1.03.4l-2.99,1.06c-.35.12-.69.2-1.03.31l-7.5,1.57c-.21.04-.33.07-.54.1l-2.99.41c-.1.01-.41.04-.49.1-.53.41,2.21.21,2.28.2l2.01-.22c.69-.1,1.31-.16,2.01-.29l4.02-.81c.36-.08.63-.16.98-.25,1.63-.41,2.49-.73,4.02-1.23.35-.11.66-.25,1.03-.37.97-.32,3.13-1.32,4.02-1.76,2.79-1.4,5.55-3.07,8.04-5.08.66-.53,4.43-3.75,5.2-4.76.22-.29.6-.61.85-.94.45-.59,1.08-1.21,1.56-1.83l2.06-2.72c.24-.32.46-.67.73-.94.07.16.07.07.01.31-.07.33-.26.64-.01.94.47-.47.61-1.12.79-1.61l.71-1.65c.36-.79.87-1.42,1.31-2.46l.36-.85-.13-.13c-.61.61-3.79,4.98-4.52,5.99-.38.53-.73.95-1.11,1.47-1,1.39-2.63,3.29-3.89,4.56h0ZM591.49,38.85c.06.14.04.04.03.18l-.17.58c-.36,1.06-.58,1.36-1.21,2.37-.06-.33.4-1.82.75-2.32.18-.26.39-.6.59-.8h0ZM601.15,22.05l2.79-2.79s.08-.06.11-.09c.64-.49,2.21-2.06,2.77-2.26.05.3-.11.38-.4.67-1.5,1.47-3.9,4.35-5.13,5.99-2.44,3.23-4.19,5.73-6.28,9.25-.16.27-2.76,4.64-2.39,5.27.41-.41.81-.78,1.06-1.21l.62-1.16c.88-1.62,1.85-3.16,2.85-4.73,1.3-2.07,2.88-4,4.35-5.94.15-.2.37-.43.48-.58.17-.22.29-.4.46-.58.4-.42.64-.81,1.03-1.21.75-.77,1.35-1.61,2.1-2.37.26-.26.26-.35.49-.58,2.66-2.82,4.44-4.56,7.6-6.57,2.33-1.49,4.72-2.65,7.1-4.09,1.48-.89,1.23,0,2.37-.28.6-.15,1.54-.87,1.72-1.3.1-.23-.03-.28.03-.58.19-.32,6.95-3.03,7.46-3.24.51-.2.96-.37,1.47-.55l1.47-.52c.26-.09.49-.14.76-.2.28-.06.47-.17.71.04-.31.31-.41.37-.71.53-.21.11-.43.24-.67.36-1.21.58-3.07,1.25-4.02,2.2.62-.04,1.2-.45,1.74-.73.56-.28,1.15-.51,1.7-.67.26-.07.61-.17.85-.21.27-.04.55-.06.85-.1l.85-.06c.3-.03.57-.07.85.2-.53.53-1.91.75-2.64,1-1.36.45-3.37,1.45-3.84,2.98.23.22.28.18.54.13l1.47-.45c.31-.13,1.65-.8,1.97-.61-.13.36-1.73.82-1.88,1.25.34.19,1.09.04,1.47,0l1.47-.11c.39,0,.68-.01.98.29-.33.53-1.35.84-1.92,1.03l-4.02,1.31c-2.11.7-3.97,1.55-5.94,2.81-.37.24-.65.41-1.03.68-.29.21-.69.48-.98.74-.32.28-.67.5-.98.8-.41.39-.51.67-.8.99l.13.13c.19-.12.43-.18.67-.3.21-.1.43-.23.67-.36,2.59-1.45,5.3-2.66,8-3.82.39-.17.95-.3,1.3-.52l.13.13c-.58.56-1.47.75-2.05,1.25.05,0,.1,0,.18-.02.16-.03.01,0,.18-.04.76-.22,1.55-.42,2.28-.7.24-.09.41-.17.67-.25.1-.03.56-.17.63-.17,1.07-.04-1.83,1.51-1.97,1.59l-2.59,1.53c-.36.23-.95.52-1.3.87l.49-.15c1.4-.65,2.82-1.18,4.24-1.76.81-.33,1.1.23,1.88-.03.36-.12.6-.17.94-.28l1.92-.56c1.85-.5,3.74-.93,5.63-1.25.12-.02,2.13-.12,1.65.38-.24.25-3.88.79-4.69,1.05l-1.43.47c-1.47.59-2.88,1.24-4.24,2.07-1.06.65-1.87,1.24-2.81,2.19.26.05.43-.04.67-.15.25-.11.41-.17.67-.29,1.49-.69,3-1.41,4.56-1.95l2.59-.92c.62-.2,1.28-.47,1.92-.63.45-.11.87-.24,1.3-.35.45-.12.83-.24,1.3-.36l3.89-.87c.58-.12,3.72-.59,3.89-.69-.3-.06-.52.03-.85.02l-2.5.13c-.7,0-2.91.31-3.31-.02.24-.21.86-.26,1.16-.31l5.67-.69c.21-.02.38-.04.58-.06l1.7-.22c.66-.07,1.71-.2,2.28.18.8.55,1.53.43,2.46.5l.18.02c.75.07,2.22.03,3.04.12l1.7.15c.97.11,1.92.19,2.86.46l2.28.81c1.71.74,3.82,1.52,5.67,2.32l4.56,1.96c.42.2,1.96.86,2.14,1.37-.23.19-.3.09-.58-.01-2.62-.92-3.37-1.32-6.25-1.91-.21-.04-.36-.06-.58-.1-.5-.09-1.19-.26-1.65-.17.53.45.88.35,1.25.71-.32.19-1.17-.04-1.65-.11-.29-.04-.51-.1-.8-.14l-2.46-.38-9.11-.67c-.66-.06-1.51.03-2.23.03l-4.11.23c-.75.06-5.13.56-5.63.87l1.56-.02c.23,0,.29-.06.49.11-.34.29-1.07.31-1.34.54.48.09,1.71-.24,2.28-.35,1.39-.28,2.06-.29,3.35-.46.37-.05.73-.05,1.12-.1l1.12-.06c1.14-.04,2.8-.09,3.93-.04l.31.03c.4.04,2.28-.02,2.44.21.24.34-.79.37-.88.64-.05.15.08.17.45.2.59.04,1.29-.14,1.65.16-.34.32-.96.41-1.34.51-.8.2-3.08.03-3.98.79.22.21.21.16.45.16.98.03.8-.09,2.01.1.32.05,1.51.43,1.64.65.28.47-1.87.19-2.22.19-.76,0-1.74.19-2.46.42-.2.06-.22.06-.4.2-.19.14-.24.2-.4.22-.92.12-1.35-1.73-3.22-.2-.7.57-.74.38-1.65.3-1.12-.09-2.1.02-3.22.18l-1.61.31c-.3.07-.54.11-.85.19-1.91.48-2.96.86-4.82,1.49-.31.11-.52.22-.8-.05.17-.2.19-.29.45-.54.24-.23.26-.27.4-.49-.33-.07-.94,0-1.3.1-1.57.46-2.44,1.29-3.22,1.68-.29.15-.36.21-.63-.04.14-.23.04-.21.27-.45-.42-.08-2.59.97-2.9,1.13-.99.49-1.93.99-2.9,1.57-.95.57-5.35,3.58-5.67,4.49.28.04.37-.12.67-.25.52-.22.51-.09.67.07-.13.23,0,0-.09.22-.41.9-3.17,3.76-4.21,5.05-.27.33-.51.56-.78.89l-5.24,7.01c-.26.37-.19.46-.58.85-.15-.26-.02-.55.08-.94.43-1.69,3.54-5.74,3.58-6.3-.49.49-1.5,1.81-1.93,2.41-1.79,2.52-3.05,4.41-4.36,7.19-.98,2.09-1.54,3.78-1.87,6.03-.09.63-.2,2.47-.04,2.99.09.29.16.27.15.58-.41.26-.57-.12-.86.27-.44.58.17,1.88.23,2.14.04.18.05.22-.13.4-.77-.27-1.14-1.39-1.29-1.97l-.25-1.07c-.06-.28-.1-.8-.29-1.03-.5.6-.58,3.14-.62,4.02v.36c0,.07,0,.05,0,.13v.31c.11,1.46.09,2.23.26,3.84.03.3.06.54.09.85l.24,1.74c.05.31.06.54.11.85.05.31.11.54.18.85.04.15.09.31.11.45.03.21.05.2-.14.4-.45-.45-.97-1.66-1.17-2.14-.32-.75-.52-1.35-.78-2.1-.13-.37-.2-.7-.3-1.07l-.23-1.03c-.2-.97-.31-2.19-.35-3.17-.04-.99-.08-1.61.03-2.68.02-.19,0-.3.03-.49.13-.98.54-3.27.36-4.2-.13.22-.26,1.13-.31,1.43-.23,1.49-.55.39-.68.18-.41.49-1.03,5.19-1.14,6.03-.02.14-.03.57-.23.49-.2-.08-.13-1.36-.11-1.61l.03-.31c0-.06,0-.07,0-.13l.05-.85c0-.81.14-1.61.22-2.41l.34-2.41c.14-.81.3-1.59.46-2.41.09-.46.56-1.94.47-2.37-.85.85-2.02,3.51-2.41,4.56-.42,1.11-.81,2.26-.87,3.44-.02.34-.18.82.07,1.12.38-.38.59-1.08.94-1.21.07.37-.2.98-.34,1.38-.25.69-.55,1.4-.73,2.1-.06.23-.16.44-.22.67-.32,1.21-.51,2.34-.63,3.57l-.02.27c.05,2.45.98,2.16.89,2.95-.08.72-1.08,1.15-.03,2.77.82,1.28,1.43,2.64,1.77,4.11.49,2.18.16,1.31.89,3.44.07.21.19.49.34.67.16-.81-.41-2.43-.37-3.22.05-1.05,1.03,1.43,1.07,1.53l1.42,3.17c.46,1.05.97,2.21,1.54,3.22.82,1.43.88-1.78,1.5-.41.22.49.24,1.46.45,2.15.08.24.27.81.4,1.03.13-.05-.03.04.05-.07.06-.09-.06,0,.06-.08.18-.13.07-.05.18.06.15.16.27.37.39.54.24.38.42.69.63,1.07.99,1.79,1.39,3.34,1.61,5.31.03.31,0,.7,0,1.03,0,.23,0,.3-.03.54-.22,1.74-.31,2.49-.98,4.24-.08.2-.09.3-.22.54-.6,1.07-.03,1.33-.28,2.1-.51,1.58-2.53,2.65-3.79,3.45-1.02.64-2.07,1.08-3.17,1.41-1.05.31-2.09.39-3.17.39-1.05,0-2.15-.19-3.17-.48-.61-.17-3.85-1.26-4.11-1.99.18-.5.75-.18,1.12-.49-.75-.75-2.13-1.02-2.81-1.31-1.56-.66-2.99-1.63-4.2-2.84-1.54-1.56-2.28-3.56-2.96-5.58-.46-1.35-.8-2.75-1.09-4.15l-1.09-6.3c-.03-.26-.05-.46-.09-.71l-.18-1.38c-.12-1.13-.36-2.39.02-3.48.37-1.07.42-.87.24-2.1l-.51-4.2c-.06-.46-.08-.93-.13-1.38-.02-.16-.02-.19-.02-.36l-.05-.71c-.02-.14-.03-.15-.04-.31-.02-.44-.13-.69-.19-1.07-.06-.34,0-.69-.05-1.03-.06-.48.03-.95.02-1.43,0-.28.03-.4.04-.67.06-.93,0-1.84,0-2.77,0-.24-.02-.48,0-.71l.13-2.46c.01-.17.03-.18.04-.36.07-1.91.61-5.14,1.06-6.97.06-.25.08-.42.14-.67.07-.27.1-.44.17-.71l.77-2.81c1.02-3.13,2.09-6.09,3.53-9.07.24-.5.43-.9.68-1.38,1-1.9,1.95-3.76,3.1-5.58,1.21-1.93,2.44-3.77,3.91-5.58.54-.67,1.41-1.69,2.31-2.68h0ZM612.93,50.01c-.06-.32.24-1.32.38-1.65.24-.6.38-1.07.96-1.65.12.6-.33,1.91-.85,2.46-.48.51-.16.46-.49.85h0ZM608.64,35.18l.85-.76c.05.35-.45,1.17-.76,1.47-.44.44-.82.65-1.21,1.03-.05-.32.91-1.53,1.12-1.74ZM621.33,37.51l.04-.14-.04.14ZM626.6,29.55c.17.17.16.19.36.13l1.21-.8c-.08.34-.66.81-.85,1.12-.2.34-.03.32-.19.58-.07.11-.35.31-.53.49l-.09-.09c.46-.55,0-.98.09-1.43h0ZM632.68,9.63c-.22-.22-.16-.24-.36-.45-.32.06-.31,0-.67.22-.23.14-.42.3-.67.47-.39.26-.94.53-1.34.29.66-.23,1.13-.43,1.7-.9.73-.6.89-.06,1.25-.36.17-.14.14-.23.36-.44-.02.28-.15.35-.24.58-.1.26.03.27-.03.58h0ZM639.33,19.41c.99-.99,2.03-1.6,3.04-1.94.27-.09.49-.19.76-.23.59-.09,1.78-.2,2.28.11-.36.36-.94.38-1.52.5-1.34.28-2.6.62-3.8,1.25-.26.14-.5.28-.76.3h0ZM647.77,21.42c.6-.57,1.95-.88,2.55-.76-.23.19-.97.47-1.25.57-.39.13-.93.26-1.3.19h0ZM649.83,17.76l-.13.04.13-.04ZM653.4,12.04h-.09s.09,0,.09,0ZM653.49,12.04h-.09s.09,0,.09,0ZM703.73,118.73l-.17.17c-.25.24-.4.31-.64.55-.24.23-.47.49-.71.72-.25.23-.38.29-.67.58-1.64,1.66-6.23,5.26-8.35,6.59l-2.81,1.84c-1.35.88-2.79,1.67-4.2,2.4l-2.77,1.34c-.46.2-.96.21-1.38.48.25.04,2.15-.22,2.46-.4l.13.13c-.54.54-1.92,1.08-2.64,1.39-.44.19-.84.36-1.3.57-1.38.64-3.78,1.2-5.23,1.2-.21,0-.46-.02-.67.01-.26.04-.38.07-.63.32l.45.45c.24-.05.32-.07.58-.07.28,0,.78.11.28.38l-.99.39c-2.11.7-4.3,1.03-6.48,1.46-1.92.38-3.9.69-5.85.89l-4.51.36c-.71.05-1.98-.12-2.59.07-.16.27.05.39-.4.57-.75.29-4.15.26-5.01.21-1.62-.11-.77.03-1.78-.63-.59-.39-1.83-.25-2.5-.25-2.54,0-5.08-.42-7.55-.98-1.05-.24-2.15-.49-3.17-.83l-1.88-.63c-.84-.28-1.65-.57-2.5-.92-1.9-.76-3.85-1.56-5.67-2.55l-1.88-.96c-1.06-.55-4.83-2.55-6.56-3.96l-.76-.76c-.04-.07-.08-.13-.1-.19.28-.06.47.09.76.26,1.7,1.03,3.4,1.96,5.14,2.85l.76.38c.27.14.45.2.71.33,1.73.85,4.04,1.92,5.85,2.51,4.42,1.45,3.38,1.27,7.32,1.82l2.19.21c.41.04.31.05.71-.03-.85-.53-2.84-.96-3.8-1.24-1.29-.38-2.52-.84-3.8-1.26-.93-.31-7.04-2.4-7.55-2.9.19-.16.16-.12.36-.1.82.1,1.65.37,2.46.57.95.23,1.87.48,2.81.75.96.27,1.88.54,2.81.79l2.81.68c.96.19,1.86.39,2.81.58l7.06,1.3c.31.05,1.11.23,1.38.07-.5-.48-2.86-.98-3.62-1.74.43-.37,2.27.26,2.86.29l6.7.31c.25,0,.33,0,.58.03.57.07,2.85.06,3.35.12.66.09,2.48.03,3.17.1.29.03,1.07.08,1.3-.04-.76-.15-1.46-.21-2.23-.3-.77-.08-1.48-.14-2.23-.23-.2-.02-.38-.05-.58-.07l-2.77-.24c-.39-.04-.72-.06-1.12-.11-.94-.11-6.62-.34-6.62-1.11,0-.46,1.68-.42,2.15-.72-.21-.04-.41-.03-.63-.02-1.1.08-2.04.06-3.13-.07-2.08-.26-4.22-.48-6.25-.99-.77-.19-9.36-2.44-9.96-2.81.27-.23.52-.08.8-.04,1.4.23,2.5.52,3.8.78,1.83.36,5.17,1.23,6.83,1.41.26.03.5.08.76.03-.21-.18-.92-.42-1.21-.54l-6.03-2.12c-.46-.2-8.65-2.97-6.62-2.71l4.83,1.36c-.31-.3-2.43-1.31-2.81-1.47l-6.97-3.01c-.4-.17-1.03-.4-1.38-.7.19-.16.18-.13.4-.09.67.14,3.32,1.07,4.02,1.32,1.4.51.77.35,1.43.03.6-.29,2.27.31,2.95.48,2.26.56,3.56.89,5.85,1.29l7.28,1.01c.24.03.46.06.71.08.26.01.47.07.71.02-.55-.34-4.15-1.08-5.05-1.28-1.91-.42-2.18-.42-4.11-1.12-1.61-.58-3.22-1.41-4.6-2.5-.37-.29-.58-.28-.71-.73.23-.22.33-.22.58-.19.23.03.34.02.54.05,1.08.18,2.14.47,3.22.74l3.22.69c.36.07.69.14,1.07.21l2.68.55c.21.04.35.09.54.13,1.02.21,4.76,1.01,5.36.89-.84-.52-2.78-.94-3.89-1.3-1.99-.63-4.02-1.12-6.03-1.71l-4.42-1.27c-.92-.31-1.83-.56-2.73-.93-.22-.09-.37-.11-.45-.33.79-.46,9.89,1.9,12.24,2.03.29.02.53.08.8.02-.67-.67-5.15-1.95-6.25-2.32-.88-.3-1.76-.46-2.68-.59-.59-.08-1.19-.16-1.79-.15-.79,0-1.88-.55-.8-.58l1.34-.04c.22,0,.25.04.45-.07-.79-.24-1.62-.37-2.41-.62-.18-.06-1.21-.27-1.01-.56.11-.16.97-.09,1.19-.09.27,0,.36,0,.63.04.22.02.36,0,.58.03,2.01.27,4.8.86,6.65,1.42,2,.6,3.3.88,5.4,1.06.41.03.8.06,1.21-.02-.66-.66-2.55-.74-2.86-1.61.48-.28,1.67.27,2.19.39,1.81.39,3.61.73,5.45.95l1.07.08c.25.02.32.04.58.04.2,0,.33,0,.54,0,.24,0,.31-.03.54-.05.19-.01.35,0,.54,0l2.14-.09c.8,0,2.47-.2,3.26-.29,1.82-.22,3.61-.55,5.4-.9,2.21-.44,4.38-1.14,6.52-1.85l2.14-.81c3.03-1.24,5.92-2.76,8.67-4.59l3.26-2.33c.77-.6,1.48-1.14,2.19-1.81l2.68-2.41,4.43-4.87c1.22-1.42,2.37-2.9,3.24-4.33.43-.71.87-1.44,1.28-2.19,1.17-2.14,2.26-4.27,3.3-6.48.52-1.1.9-2.16,1.36-3.26.08-.18.12-.35.19-.54l.78-2.19c.06-.2.1-.36.16-.54.78-2.49,1.38-5.01,1.76-7.59l.23-2.14c.02-.23.04-.3.04-.54l.09-3.8c0-1.09-.08-1.86-.87-2.72-.69-.75-.74-1.76-.89-2.68-.06-.38-.15-.73-.24-1.12-.41-1.82-.88-3.67-1.6-5.4-1.64-3.95-1.99-4.78-4.58-8.66-.43-.65-1.94-2.57-2.64-3.26-.66-.65-1.29-1.53-2.05-2.09l-1.07-.94c-1.43-1.3-2.87-2.34-4.33-3.31-.74-.5-1.48-.95-2.19-1.35-1.09-.62-2.13-1.21-3.26-1.76-3.3-1.58-7.33-3.18-10.81-4.03l-3.26-.84c-.55-.14-1.08-.22-1.61-.47-.38-.18-.2-.12-.35-.38-.31-.06-.65-.08-.98-.12l-1.43-.15c-.18-.02-.26-.01-.45-.03l-.94-.07c-.2-.03-.3-.01-.49-.01-.21,0-.25-.02-.45-.04h-2.81c-.21.01-.27.04-.49.04-.78,0-1.55.1-2.32.19-.78.09-2.18.41-2.77.42-.67.01-.48-.28,0-.48.3-.13.65-.17.94-.41-.57-.11-1.89.31-2.46.45-.43.11-.8.23-1.21.35-.41.12-.78.23-1.21.38-.43.14-.78.26-1.21.4-1.65.55-3.25,1.22-4.87,1.91-1.79.77-4.36,2.06-6.03,2.98-.37.21-1.95,1.21-2.41.95-.04-.26.17-.42.35-.56,2.18-1.7,4.18-2.87,6.66-4.12.78-.39,1.6-.73,2.41-1.06,3.27-1.31,6.42-2.05,9.69-2.44.23-.03.4-.04.63-.07.24-.03.41-.03.63-.06.4-.05.79-.03,1.21-.07.58-.05,2.33-.11,2.9-.06l5.58.3c1.56.19,2.48.24,4.24.54l1.79.35c.63.16,1.95.75,2.32,1.34-.13.11-.14.1-.27.18l2.46.58c.83.23,1.61.42,2.46.7l4.87,1.67c.84.35,1.62.66,2.46,1.05,1.88.88,3.1,1.62,4.87,2.76.44.28,1.99,1.38,2.41,1.32-.18-.18-.44-.57-.59-.76-.35-.43-1.84-1.82-2.22-2.12-.97-.76-1.99-1.39-2.99-1.94-.98-.53-1.98-1.01-2.99-1.44-.86-.37-2.43-.93-2.63-1.96.3-.3.37-.32.67-.4.19-.05.42-.08.63-.1,3.06-.33-.64-1.66-1.52-1.98l-5.58-1.77c-.25-.08-.3-.06-.54-.3.13-.08.14-.07.4-.02.16.03.25.06.4.1.28.06.52.12.8.18,1.36.31,3.52.92,4.82,1.27.78.21,6.19,2,6.43,1.96-.18-.15-.76-.36-.98-.45-.64-.24-2.53-.84-2.63-1.56-.11-.81,1.31-.68,1.65-.73,1.6-.26-2.73-1.74-2.9-1.8-1.6-.58-3.17-1.19-4.73-1.87-.34-.15-.62-.24-.94-.55.31-.26.85-.05,1.21.03l3.48.87c.79.2,1.54.4,2.32.63,1.22.36,1.15.11,2.05.22,1.06.12,1.62.38,2.59.74.76.28.59-.28,1.16-.44.43-.12.75.3,1.16.53,1.02.55,1.14-.49,2.32.43l2.32,2.13c.06-.37-.37-.35-.13-.76.43.15,2.23,1.98,2.72,2.55.59.68.43.36.81.45.49.11,2.21,1.88,2.72,2.45.19.21.15.23.35.45.14.15.31.28.44.45.45.57,1.08,1.27,1.58,1.83,1.02,1.15,1.98,2.41,2.84,3.62.44.61.85,1.23,1.25,1.79.81,1.14,1.61,2.41,2.26,3.62.18.33.34.6.53.94.18.32.32.6.49.89.32.57.62,1.21.9,1.79.6,1.19,1.11,2.4,1.6,3.62.96,2.36,1.73,4.74,2.33,7.19.51,2.07.8,3.83,1.18,5.9.16.9.21,1.82.33,2.72l.2,2.23c.05,1.59.26,4.53.11,6.12,0,.02,0,.07,0,.09l-.13,2.86c-.02.18-.01.26-.03.45-.08.94-.51,4.45-.42,4.91.54-.86.78-1.85,1.06-2.81.86-3.04,1.39-6.15,1.62-9.29l.11-2.99s0-.03,0-.04l-.02-.4c0-.07,0-.1,0-.18l-.22-3.84c-.2-2.02-.75-5.09-1.39-6.97-.1-.28-.12-.44-.21-.71-.08-.25-.14-.42-.22-.67-.05-.16-.91-2.06-.57-2.06.3,0,1.34,2.3,1.5,2.69.64,1.61,1.31,3.23,1.86,4.87.54,1.61,1.14,3.25,1.48,4.91l.41,1.38c.09.24.15.47.34.67.06-.3,0-.65-.04-.98-.02-.19-.04-.3-.07-.49l-.16-1.47c-.04-.29-.11-.65.13-.94.42.49,1.04,4.25,1.34,4.73.05-.26.02-.45-.01-.71-.03-.25-.04-.47-.06-.71-.11-1.06-.64-3.01-.85-4.2-.09-.51-.14-1.45.32-.36.48,1.14,1.31,3.71,1.53,4.87.05.26.11.45.16.71.34,1.74.58,3.46.73,5.23.01.17.03.18.04.36l.04,3.48c0,.24,0,.43,0,.67l-.04.54c-.08,1-.12,2-.26,2.99l-.58,3.53c-.09.45-.15.93-.22,1.38-.24,1.4-.56,2.81-.88,4.2-.39,1.71-1.45,5.48-2.09,6.97-.19.45-.34.92-.51,1.38l-1.16,2.81c-.61,1.42-1.34,2.82-2.03,4.2-.25.5-.51.94-.79,1.43-1.61,2.9-3.46,5.73-5.55,8.35-2.1,2.63-4.31,5.09-6.78,7.59h0ZM648.69,119.55c-.54.46-3.61.91-4.6-.04.2-.12,1.89.11,2.28.11l2.32-.07h0ZM648.91,123.17c.19-.11.74-.08.98-.05.35.05.63.04.98.03l.98-.05c.33,0,.72-.04,1.03.02-.48.48-1.33.86-1.97.83-.12,0-.11-.01-.22-.03-.13-.02-.16-.01-.27-.03-.45-.07-1.17-.38-1.52-.73h0ZM648.83,119.51l-.13.04.13-.04ZM653.87,123.3c.25-.08.51-.1.76-.14.16-.02.24-.01.4-.03.18-.02.21-.04.4-.04.46,0,1.17.02,1.61.16-.7.44-2.59.38-3.17.05ZM705.96,67.55c-.27-.87-.06-2.61-.07-3.62,0-.2-.01-.38,0-.58l.06-.63c.11.19.35,2.66.34,2.99,0,.19-.06.42-.09.63-.04.29-.11.97-.25,1.21h0ZM708.42,48.03c.24.24.54.69.69.94.22.35.41.65.61.98,1.02,1.69,1.97,3.86,2.35,5.76.54,2.74.28,4.11-.28,6.74-.07.33-.11.67-.38.98l-.38-2.86c-.03-1.78-.6-4.94-1.05-6.74l-1.02-3.84c-.11-.4-.58-1.67-.53-1.97h0ZM685.92,24.36l-.13-.04.13.04ZM685.92,24.36l.14.04-.14-.04ZM707.44,45.98c-.19-.19-.68-1.41-.87-1.83-.47-1.03-1.46-2.85-2.3-3.67-.75-.73-2.19-.55-2.8-3.08-.08-.32-.21-.63-.33-.94-.11-.31-.21-.6-.35-.94-.37-.91-.88-1.9-1.39-2.77-.14-.24-.38-.66-.4-.94.69.58.98.85,1.59,1.65.43.56.88,1.02,1.46,1.79,2.12,2.85,3.74,5.69,5.08,8.93.19.45.4,1.38.32,1.79h0Z"/>
        </g>
        <polygon class="cls-1" points="430.35 87.98 430.35 104.19 362.78 104.19 362.78 16.92 428.72 16.92 428.72 33.13 382.85 33.13 382.85 52.08 423.37 52.08 423.37 67.79 382.85 67.79 382.85 87.98 430.35 87.98"/>
        <path class="cls-1" d="M471.98,105.19c-7.23,0-13.67-1.47-19.32-4.43-5.65-2.95-10.08-7.04-13.28-12.28-3.2-5.24-4.8-11.18-4.8-17.83s1.6-12.69,4.8-17.89c3.2-5.19,7.62-9.27,13.28-12.22,5.65-2.95,12.09-4.43,19.32-4.43s13.21,1.48,18.45,4.43c5.24,2.95,9.1,7.17,11.59,12.65l-15.08,8.1c-1.75-3.16-3.93-5.49-6.54-6.98-2.62-1.5-5.47-2.24-8.54-2.24-3.33,0-6.32.75-8.98,2.24-2.66,1.5-4.76,3.62-6.3,6.36-1.54,2.74-2.31,6.07-2.31,9.97s.77,7.23,2.31,9.97c1.54,2.74,3.63,4.86,6.3,6.36,2.66,1.5,5.65,2.24,8.98,2.24,3.07,0,5.92-.73,8.54-2.18,2.62-1.45,4.8-3.8,6.54-7.04l15.08,8.23c-2.49,5.4-6.36,9.58-11.59,12.53-5.24,2.95-11.39,4.43-18.45,4.43Z"/>
        <path class="cls-1" d="M576.33,65.79v38.4h-19.45v-35.41c0-5.4-1.18-9.39-3.55-11.97-2.37-2.57-5.72-3.87-10.04-3.87-3.08,0-5.84.64-8.29,1.93-2.45,1.29-4.36,3.26-5.73,5.92-1.37,2.66-2.06,6.07-2.06,10.22v33.16h-19.45V11.69h19.45v32.47c1.73-1.73,3.73-3.21,5.98-4.42,4.49-2.41,9.6-3.62,15.34-3.62,5.32,0,10.07,1.06,14.27,3.18,4.2,2.12,7.5,5.36,9.91,9.72,2.41,4.36,3.62,9.95,3.62,16.77Z"/>
      </g>
    </g>
  </g>
</svg>